<?xml version="1.0" encoding="UTF-8"?>
<svg width="31px" height="31px" viewBox="0 0 31 31" version="1.1" xmlns="http://www.w3.org/2000/svg" xmlns:xlink="http://www.w3.org/1999/xlink">
    <!-- Generator: Sketch 53.2 (72643) - https://sketchapp.com -->
    <title>facebook</title>
    <desc>Created with Sketch.</desc>
    <g id="FINAL-WEBSITE" stroke="none" stroke-width="1" fill="none" fill-rule="evenodd">
        <g id="HOMEPAGE" transform="translate(-1253.000000, -5108.000000)" fill="#FFFFFF">
            <g id="FOOTER" transform="translate(0.000000, 4668.000000)">
                <g id="facebook" transform="translate(1253.000000, 440.000000)">
                    <path d="M15.499622,0.756106782 C7.37006098,0.756106782 0.756097561,7.37015086 0.756097561,15.500189 C0.756097561,23.6298491 7.37006098,30.2438932 15.499622,30.2438932 C23.629939,30.2438932 30.2439024,23.6298491 30.2439024,15.500189 C30.2439024,7.37015086 23.629939,0.756106782 15.499622,0.756106782 L15.499622,0.756106782 Z M15.499622,31 C6.95307317,31 0,24.046842 0,15.500189 C0,6.95315797 6.95307317,0 15.499622,0 C24.0465488,0 31,6.95315797 31,15.500189 C31,24.046842 24.0465488,31 15.499622,31 L15.499622,31 Z" id="Fill-2"></path>
                    <path d="M12.7179487,13.2122044 L14.0802461,13.2122044 L14.0802461,11.8549167 C14.0802461,11.2558483 14.0948905,10.3324722 14.5188466,9.76042949 C14.9658676,9.15498006 15.5791028,8.74358974 16.6342334,8.74358974 C18.3531225,8.74358974 19.0769231,8.99470299 19.0769231,8.99470299 L18.7360741,11.064792 C18.7360741,11.064792 18.1686028,10.8958818 17.6388408,10.8958818 C17.1087127,10.8958818 16.6342334,11.0906916 16.6342334,11.6338319 L16.6342334,13.2122044 L18.8070996,13.2122044 L18.6555298,15.2338725 L16.6342334,15.2338725 L16.6342334,22.2564103 L14.0802461,22.2564103 L14.0802461,15.2338725 L12.7179487,15.2338725 L12.7179487,13.2122044" id="Fill-3"></path>
                </g>
            </g>
        </g>
    </g>
</svg>