<?xml version="1.0" encoding="UTF-8"?>
<svg width="32px" height="31px" viewBox="0 0 32 31" version="1.1" xmlns="http://www.w3.org/2000/svg" xmlns:xlink="http://www.w3.org/1999/xlink">
    <!-- Generator: Sketch 53.2 (72643) - https://sketchapp.com -->
    <title>instagram</title>
    <desc>Created with Sketch.</desc>
    <g id="FINAL-WEBSITE" stroke="none" stroke-width="1" fill="none" fill-rule="evenodd">
        <g id="HOMEPAGE" transform="translate(-1294.000000, -5108.000000)" fill="#FFFFFF">
            <g id="FOOTER" transform="translate(0.000000, 4668.000000)">
                <g id="instagram" transform="translate(1294.000000, 440.000000)">
                    <path d="M16,0.756097561 C7.60780488,0.756097561 0.780487805,7.37006098 0.780487805,15.5 C0.780487805,23.629561 7.60780488,30.2439024 16,30.2439024 C24.3921951,30.2439024 31.2195122,23.629561 31.2195122,15.5 C31.2195122,7.37006098 24.3921951,0.756097561 16,0.756097561 L16,0.756097561 Z M16,31 C7.1777561,31 0,24.0465488 0,15.5 C0,6.95307317 7.1777561,0 16,0 C24.8226341,0 32,6.95307317 32,15.5 C32,24.0465488 24.8226341,31 16,31 L16,31 Z" id="Fill-31"></path>
                    <path d="M21.7968,19.6451211 C21.7968,20.3595446 21.178,20.9394972 20.4168,20.9394972 L11.5828,20.9394972 C10.8216,20.9394972 10.2032,20.3595446 10.2032,19.6451211 L10.2032,14.1126587 L12.3528,14.1126587 C12.1676,14.5419889 12.0624,15.009632 12.0624,15.5001878 C12.0624,17.5379099 13.8288,19.1947563 16,19.1947563 C18.1712,19.1947563 19.9372,17.5379099 19.9372,15.5001878 C19.9372,15.009632 19.8316,14.5419889 19.6472,14.1126587 L21.7968,14.1126587 L21.7968,19.6451211 L21.7968,19.6451211 Z M13.9452,14.1126587 C14.4052,13.5135497 15.154,13.1210299 16,13.1210299 C16.846,13.1210299 17.594,13.5135497 18.0544,14.1126587 C18.3548,14.503676 18.5356,14.9814608 18.5356,15.5001878 C18.5356,16.8118423 17.3976,17.8778432 16,17.8778432 C14.602,17.8778432 13.4652,16.8118423 13.4652,15.5001878 C13.4652,14.9814608 13.6452,14.503676 13.9452,14.1126587 L13.9452,14.1126587 Z M21.2148,10.3016489 L21.5328,10.3001465 L21.5328,12.5899075 L19.1004,12.5985467 L19.0916,10.3076588 L21.2148,10.3016489 L21.2148,10.3016489 Z M20.4168,8.74358974 L11.5828,8.74358974 C10.0488,8.74358974 8.8,9.91476346 8.8,11.3548789 L8.8,19.6451211 C8.8,21.0852365 10.0488,22.2564103 11.5828,22.2564103 L20.4168,22.2564103 C21.9508,22.2564103 23.2,21.0852365 23.2,19.6451211 L23.2,11.3548789 C23.2,9.91476346 21.9508,8.74358974 20.4168,8.74358974 L20.4168,8.74358974 Z" id="Fill-32"></path>
                </g>
            </g>
        </g>
    </g>
</svg>