<?xml version="1.0" encoding="UTF-8"?>
<svg width="31px" height="31px" viewBox="0 0 31 31" version="1.1" xmlns="http://www.w3.org/2000/svg" xmlns:xlink="http://www.w3.org/1999/xlink">
    <!-- Generator: Sketch 53.2 (72643) - https://sketchapp.com -->
    <title>twitter</title>
    <desc>Created with Sketch.</desc>
    <g id="FINAL-WEBSITE" stroke="none" stroke-width="1" fill="none" fill-rule="evenodd">
        <g id="HOMEPAGE" transform="translate(-1213.000000, -5108.000000)" fill="#FFFFFF">
            <g id="FOOTER" transform="translate(0.000000, 4668.000000)">
                <g id="twitter" transform="translate(1213.000000, 440.000000)">
                    <path d="M15.5003781,0.756106782 C7.37024074,0.756106782 0.756116003,7.37015086 0.756116003,15.500189 C0.756116003,23.6298491 7.37024074,30.2438932 15.5003781,30.2438932 C23.6301373,30.2438932 30.243884,23.6298491 30.243884,15.500189 C30.243884,7.37015086 23.6301373,0.756106782 15.5003781,0.756106782 L15.5003781,0.756106782 Z M15.5003781,31 C6.95362082,31 0,24.046842 0,15.500189 C0,6.95315797 6.95362082,0 15.5003781,0 C24.0471353,0 31,6.95315797 31,15.500189 C31,24.046842 24.0471353,31 15.5003781,31 L15.5003781,31 Z" id="Fill-4"></path>
                    <path d="M22.2564103,11.6509469 C21.7590634,11.8742261 21.2245563,12.0252344 20.6641496,12.0929408 C21.2373184,11.7452795 21.6768604,11.1952595 21.8829309,10.5394957 C21.3469224,10.8612917 20.7546104,11.0948409 20.12176,11.2199838 C19.6176567,10.6741479 18.8962222,10.3333333 18.0985905,10.3333333 C16.5682635,10.3333333 15.3269608,11.5912283 15.3269608,13.1423911 C15.3269608,13.3630077 15.3506083,13.5767776 15.3986538,13.7821792 C13.0950933,13.6646439 11.0524053,12.5474871 9.68385684,10.8468375 C9.44513034,11.262966 9.30925142,11.7452795 9.30925142,12.2603051 C9.30925142,13.2340611 9.79871581,14.0940855 10.5419209,14.5984606 C10.0884907,14.5843868 9.6602094,14.4569617 9.28560399,14.2477563 L9.28560399,14.2819899 C9.28560399,15.6441072 10.241636,16.7795219 11.5103397,17.0366543 C11.2779943,17.1024589 11.0336375,17.1355514 10.7798967,17.1355514 C10.6012272,17.1355514 10.4274373,17.118815 10.2585271,17.0857225 C10.6113618,18.2017381 11.6342073,19.0142158 12.848109,19.0358971 C11.8988333,19.7897972 10.7029487,20.2386379 9.40496724,20.2386379 C9.18125499,20.2386379 8.96017023,20.2260856 8.74358974,20.1998398 C9.97062892,20.9963418 11.4277614,21.4615385 12.9926211,21.4615385 C18.0933355,21.4615385 20.8807301,17.1815766 20.8807301,13.4687515 C20.8807301,13.3466517 20.8784779,13.2249322 20.8732229,13.1051145 C21.4152372,12.7087654 21.8863091,12.2138996 22.2564103,11.6509469" id="Fill-5"></path>
                </g>
            </g>
        </g>
    </g>
</svg>