<?xml version="1.0" encoding="UTF-8"?>
<svg width="32px" height="31px" viewBox="0 0 32 31" version="1.1" xmlns="http://www.w3.org/2000/svg" xmlns:xlink="http://www.w3.org/1999/xlink">
    <!-- Generator: Sketch 53.2 (72643) - https://sketchapp.com -->
    <title>linkedin</title>
    <desc>Created with Sketch.</desc>
    <g id="FINAL-WEBSITE" stroke="none" stroke-width="1" fill="none" fill-rule="evenodd">
        <g id="HOMEPAGE" transform="translate(-1171.000000, -5108.000000)" fill="#FFFFFF">
            <g id="FOOTER" transform="translate(0.000000, 4668.000000)">
                <g id="linkedin" transform="translate(1171.000000, 440.000000)">
                    <path d="M16,0.756097561 C7.60780488,0.756097561 0.780487805,7.37006098 0.780487805,15.5 C0.780487805,23.6280488 7.60780488,30.2439024 16,30.2439024 C24.3921951,30.2439024 31.2195122,23.6280488 31.2195122,15.5 C31.2195122,7.37006098 24.3921951,0.756097561 16,0.756097561 L16,0.756097561 Z M16,31 C7.1777561,31 0,24.0476829 0,15.5 C0,6.95307317 7.1777561,0 16,0 C24.8226341,0 32,6.95307317 32,15.5 C32,24.0476829 24.8226341,31 16,31 L16,31 Z" id="Fill-37"></path>
                    <path d="M23.2,21.4615385 L20.0164,21.4615385 L20.0164,16.9873666 C20.0164,15.8188544 19.5196,15.0212679 18.4248,15.0212679 C17.5876,15.0212679 17.1224,15.5593986 16.9052,16.0802321 C16.8228,16.2647341 16.8364,16.5261118 16.8364,16.7836458 L16.8364,21.4615385 L13.6832,21.4615385 C13.6832,21.4615385 13.7252,13.5414087 13.6832,12.8214668 L16.8364,12.8214668 L16.8364,14.1764028 C17.0228,13.5844592 18.03,12.7384409 19.6376,12.7384409 C21.6324,12.7384409 23.2,13.9807539 23.2,16.6568007 L23.2,21.4615385 L23.2,21.4615385 Z M10.4944,11.7409774 L10.474,11.7409774 C9.4588,11.7409774 8.8,11.0794611 8.8,10.2426679 C8.8,9.39088402 9.4776,8.74358974 10.5148,8.74358974 C11.5492,8.74358974 12.186,9.3893465 12.2068,10.240746 C12.2068,11.0779235 11.5492,11.7409774 10.4944,11.7409774 L10.4944,11.7409774 Z M9.162,12.8214668 L11.9704,12.8214668 L11.9704,21.4615385 L9.162,21.4615385 L9.162,12.8214668 Z" id="Fill-38"></path>
                </g>
            </g>
        </g>
    </g>
</svg>