<?xml version="1.0" encoding="UTF-8"?>
<svg width="89px" height="74px" viewBox="0 0 89 74" version="1.1" xmlns="http://www.w3.org/2000/svg" xmlns:xlink="http://www.w3.org/1999/xlink">
    <!-- Generator: Sketch 53.2 (72643) - https://sketchapp.com -->
    <title>Icon Ambition</title>
    <desc>Created with Sketch.</desc>
    <g id="DESKTOP" stroke="none" stroke-width="1" fill="none" fill-rule="evenodd">
        <g id="JOBS" transform="translate(-766.000000, -686.000000)" fill-rule="nonzero">
            <g id="Icon-Ambition" transform="translate(766.493879, 687.000000)">
                <path d="M43.84375,0.36218 C43.3532219,0.439783272 42.993949,0.865588143 43,1.36218 L43,16.04968 L15.375,64.92468 C15.2019495,65.2372874 15.2088183,65.6184699 15.3930189,65.9246397 C15.5772196,66.2308096 15.9107677,66.4154523 16.2680189,66.4090147 C16.6252701,66.4025772 16.9519495,66.2060374 17.125,65.89343 L32.1875,39.26843 L35.53125,41.45593 C35.8697094,41.6635645 36.2989479,41.6513005 36.625,41.42468 L39.90625,39.20593 L43.25,41.48718 C43.589454,41.718089 44.035546,41.718089 44.375,41.48718 L47.78125,39.14343 L51.28125,41.54968 C51.7385213,41.8560038 52.3573146,41.7357453 52.6665705,41.2804519 C52.9758263,40.8251585 52.8595467,40.2056052 52.40625,39.89343 L48.34375,37.11218 C48.1496976,36.9856656 47.9177443,36.9304386 47.6875,36.95593 C47.5206408,36.9679879 47.3594721,37.0217108 47.21875,37.11218 L43.8125,39.45593 L40.46875,37.17468 C40.129296,36.943771 39.683204,36.943771 39.34375,37.17468 L36.0625,39.39343 L33.15625,37.51843 L44,18.36218 L73.40625,70.36218 L2,70.36218 C1.93763791,70.3563083 1.87486209,70.3563083 1.8125,70.36218 C1.26021526,70.4139567 0.854473336,70.9036453 0.90625003,71.45593 C0.958026724,72.0082147 1.44771526,72.4139567 2,72.36218 L86,72.36218 C86.3606359,72.3672803 86.6960814,72.1778047 86.8778877,71.8663072 C87.0596941,71.5548096 87.0596941,71.1695504 86.8778877,70.8580528 C86.6960814,70.5465553 86.3606359,70.3570797 86,70.36218 L75.6875,70.36218 L45,16.04968 L45,11.42468 C48.78656,13.4895 53.766693,12.77038 57.34375,11.20593 C57.6301705,11.0755423 57.8385128,10.8179436 57.9061303,10.5105912 C57.9737478,10.2032387 57.892753,9.88198583 57.6875,9.64343 L55.21875,6.83093 L57.8125,2.48718 C58.0249417,2.12120138 57.9840512,1.6611289 57.7103942,1.33835396 C57.4367372,1.01557901 56.9895526,0.899973222 56.59375,1.04968 C53.428649,2.20417 49.232557,1.65402 44.25,0.39343 C44.1181625,0.355246425 43.9798763,0.344609031 43.84375,0.36218 Z" id="Shape" stroke="#172B4D" fill="#172B4D"></path>
                <path d="M45,2.54968 C48.7008215,3.33226328 52.1503799,3.80808323 55.2101227,3.38701704 L53.3742331,6.15889138 C53.1421955,6.51000187 53.1945638,6.95598886 53.5030675,7.25609164 L55.5,9.27725001 C52.2023146,10.2506676 48.0806315,10.4777211 45.4509202,8.93076571 C45.3153379,8.85158067 45.1608638,8.80212364 45,8.78639726 L45,2.54968 Z" id="Path" fill="#E80D70"></path>
            </g>
        </g>
    </g>
</svg>