<?xml version="1.0" encoding="UTF-8"?>
<svg width="253px" height="29px" viewBox="0 0 253 29" version="1.1" xmlns="http://www.w3.org/2000/svg" xmlns:xlink="http://www.w3.org/1999/xlink">
    <title>LOGO-BAIN-COMPANY</title>
    <g id="DESKTOP-EN" stroke="none" stroke-width="1" fill="none" fill-rule="evenodd">
        <g id="PRESS-PAGE" transform="translate(-200.000000, -1742.000000)" fill="#CB2026" fill-rule="nonzero">
            <g id="LOGO-BAIN-COMPANY" transform="translate(200.000000, 1742.000000)">
                <path d="M108.001312,14.5452058 C107.962354,16.6662443 108.792288,18.711838 110.300387,20.211889 C111.808486,21.7119399 113.865056,22.537445 115.997474,22.4986948 C120.413632,22.4986948 123.993635,18.9377964 123.993635,14.5452058 C124.080807,12.4024289 123.269415,10.319877 121.753313,8.79511017 C120.237211,7.27034339 118.152579,6.44031885 115.997474,6.50334474 C111.569012,6.55653304 108.00585,10.1400584 108.001312,14.5452058 Z M111.022084,14.5452058 C111.022084,11.7172986 113.065548,9.06613563 116.08632,9.06613563 C119.107092,9.06613563 121.150555,11.2754381 121.150555,14.5452058 C121.225631,15.9353536 120.727991,17.2959142 119.772407,18.3130995 C118.816822,19.3302849 117.485802,19.9162685 116.08632,19.9359039 C113.065548,20.024276 111.022084,17.7266014 111.022084,14.5452058 Z" id="Shape"></path>
                <path d="M90.0061311,14.4971237 C89.9182381,16.642541 90.7785654,18.7254074 92.3797074,20.2435907 C93.9808502,21.761774 96.1775316,22.5775257 98.4401823,22.4941866 C100.990173,22.5645046 103.411484,21.4332127 104.906288,19.4730739 L105,19.3842177 L102.657208,17.5182363 L102.563496,17.6959488 C101.7518,19.1785933 100.106539,20.0799361 98.3464707,20.0062114 C95.1602735,20.0062114 93.0049049,17.6070926 93.0049049,14.4971237 C92.9260287,13.0908501 93.448178,11.7137756 94.4533698,10.6770594 C95.4585606,9.64034339 96.8619643,9.03147629 98.3464707,8.98803586 C100.054292,9.01744232 101.634919,9.85007037 102.563496,11.2094422 L102.657208,11.2982985 L105,9.52117339 L104.906288,9.43231713 C103.297125,7.56789647 100.887266,6.49068313 98.3464707,6.5 C96.116575,6.49510549 93.9778748,7.33893972 92.4099294,8.84235038 C90.8419846,10.345761 89.9759912,12.3829519 90.0061311,14.4971237 Z" id="Shape"></path>
                <polygon id="Shape" points="204.582278 15.8023256 204.582278 22.5 207.417722 22.5 207.417722 15.8023256 213 6.5 209.898734 6.5 206 12.9186047 202.278481 6.5 199 6.5"></polygon>
                <path d="M152,6.5 L152,22.5 L154.946429,22.5 L154.946429,16.5465116 C155.125,16.5465116 155.392857,16.6395349 155.660714,16.6395349 C159.410714,16.6395349 162,14.9651163 162,11.6162791 C162,8.45348837 159.767857,6.5 155.571429,6.5 L152,6.5 Z M154.946429,8.91860465 L155.660714,8.91860465 C158.071429,8.91860465 159.053571,9.84883721 159.053571,11.5232558 C159.053571,13.1976744 157.982143,14.127907 155.660714,14.127907 C155.418908,14.156296 155.174088,14.1244124 154.946429,14.0348837 L154.946429,8.91860465 Z" id="Shape"></path>
                <polygon id="Shape" points="132.616822 13.7888889 137.411215 22.5 142.116822 13.7888889 143.981308 22.0555556 147 22.0555556 143.004673 6.5 137.5 16.8111111 131.817757 6.5 128 22.1444444 130.841121 22.1444444"></polygon>
                <polygon id="Shape" points="52.1506849 15.8333333 42 6.5 42 22.1444444 44.760274 22.1444444 44.760274 13.0777778 55 22.5 55 6.76666667 52.1506849 6.76666667"></polygon>
                <polygon id="Shape" points="32 6.5 32 22.5 35 22.5 35 6.5"></polygon>
                <path d="M28,22.5 L20.5,6.5 L13,22.5 L15.9464286,22.5 L17.4642857,19.1363636 L23.3571429,19.1363636 L24.7857143,22.5 L28,22.5 Z M18.5357143,16.6818182 L20.5,12.1363636 L22.2857143,16.6818182 L18.5357143,16.6818182 Z" id="Shape"></path>
                <path d="M7.8034188,14.0348837 C9.12965862,13.4394067 9.97708903,12.1270152 9.96581197,10.6860465 C9.96581197,7.89534884 7.70940171,6.5 3.85470085,6.5 L0,6.5 L0,22.5 L4.60683761,22.5 C8.74358974,22.5 11,20.8255814 11,17.8488372 C10.9409137,16.0039983 9.62482926,14.4337316 7.8034188,14.0348837 Z M4.41880342,15.7093023 C6.58119658,15.7093023 7.8034188,16.2674419 7.8034188,17.9418605 C7.8034188,19.4302326 6.67521368,20.0813953 4.41880342,20.0813953 L3.1025641,20.0813953 L3.1025641,15.7093023 L4.41880342,15.7093023 Z M3.1025641,13.2906977 L3.1025641,8.91860465 L3.66666667,8.91860465 C5.92307692,8.91860465 7.05128205,9.47674419 7.05128205,11.1511628 C7.05128205,12.8255814 5.92307692,13.2906977 3.76068376,13.2906977 L3.1025641,13.2906977 Z" id="Shape"></path>
                <path d="M77.5454545,22.1456073 L81,22.1456073 C81,22.1456073 78.3636364,19.2286296 77.9090909,18.6982701 C78.2727273,18.2563038 80.5454545,14.8973598 80.5454545,14.8973598 L77.7272727,14.8973598 L76.3636364,16.9304048 L73.9090909,14.1902137 C76,13.1294946 77.2727273,11.6268092 77.2727273,10.0357305 C77.2727273,7.91429218 75.3636364,6.5 72.9090909,6.5 C70.1818182,6.5 68.3636364,8.0910787 68.3636364,10.212517 C68.4612114,11.5860435 69.0761871,12.8763715 70.0909091,13.8366407 C68.4545455,14.7205733 67,16.0464722 67,18.2563038 C67,20.6429218 69,22.4991803 71.9090909,22.4991803 C73.5720595,22.5269232 75.1650445,21.8492792 76.2727273,20.6429218 L77.5454545,22.1456073 Z M71.0909091,10.3009102 C71.0756074,9.82763884 71.2622471,9.36927889 71.6065954,9.03446013 C71.9509436,8.69964136 72.4223494,8.51816671 72.9090909,8.53304501 C73.3614216,8.49779946 73.8078693,8.65096609 74.1372927,8.95441477 C74.4667162,9.25786345 74.648127,9.6830491 74.6363636,10.1241237 C74.6363636,11.1848429 73.5454545,11.9803822 72.4545455,12.5107418 C71.7166585,11.9790515 71.2261592,11.1841761 71.0909091,10.3009102 Z M74.6363636,18.9634499 C74.0488835,19.699678 73.1400933,20.1251344 72.1818182,20.1125623 C71.5703465,20.170626 70.9624652,19.9721057 70.511016,19.5669159 C70.0595669,19.161726 69.8074958,18.588412 69.8181818,17.991124 C69.8928511,16.9484453 70.5099731,16.0150439 71.4545455,15.5161127 L71.5454545,15.5161127 L74.6363636,18.9634499 Z" id="Shape"></path>
                <polygon id="Shape" points="192.150685 15.8333333 182 6.5 182 22.0555556 184.849315 22.0555556 184.849315 13.0777778 195 22.5 195 6.76666667 192.150685 6.76666667"></polygon>
                <path d="M178,22.5 L170.5,6.5 L163,22.5 L165.946429,22.5 L167.464286,19.1363636 L173.357143,19.1363636 L174.785714,22.5 L178,22.5 Z M168.535714,16.6818182 L170.5,12.1363636 L172.285714,16.6818182 L168.535714,16.6818182 Z" id="Shape"></path>
                <path d="M243.941176,15.2320261 L241.379085,3.88562092 L234.333333,13.0359477 L243.941176,15.2320261 Z M253,14.5 C253,22.2319865 246.731987,28.5 239,28.5 C231.268013,28.5 225,22.2319865 225,14.5 C225,6.7680135 231.268013,0.5 239,0.5 C239.735107,0.515509594 240.468543,0.576629269 241.196078,0.683006536 L240.006536,2.23856209 L239,2.23856209 C235.905028,2.19950546 232.921579,3.39288985 230.707333,5.55564082 C228.493089,7.71839179 227.229845,10.6729403 227.196078,13.7679739 C227.196078,20.2870995 232.480874,25.5718947 239,25.5718947 C245.519126,25.5718947 250.803922,20.2870995 250.803922,13.7679739 C250.771196,8.98666583 247.783865,4.72425521 243.300654,3.0620915 L242.843137,1.14052288 C248.845836,2.80581125 253.000564,8.27058789 253,14.5 Z" id="Shape"></path>
            </g>
        </g>
    </g>
</svg>