<?xml version="1.0" encoding="UTF-8"?>
<svg width="47px" height="72px" viewBox="0 0 47 72" version="1.1" xmlns="http://www.w3.org/2000/svg" xmlns:xlink="http://www.w3.org/1999/xlink">
    <!-- Generator: Sketch 53.2 (72643) - https://sketchapp.com -->
    <title>Group 39</title>
    <desc>Created with Sketch.</desc>
    <g id="FINAL-WEBSITE" stroke="none" stroke-width="1" fill="none" fill-rule="evenodd">
        <g id="HOMEPAGE" transform="translate(-770.000000, -2142.000000)">
            <g id="Group-39" transform="translate(770.000000, 2142.543040)">
                <g id="Group">
                    <path d="M24.5828139,59.5057619 C38.0254067,42.9310314 44.7201664,30.7427425 44.7201664,23.2350832 C44.7201664,11.3691994 35.100967,1.75 23.2350832,1.75 C11.3691994,1.75 1.75,11.3691994 1.75,23.2350832 C1.75,30.7427427 8.44476003,42.931032 21.8873523,59.5057618 C22.4910278,60.2500925 23.5838021,60.3641171 24.3281326,59.7604432 C24.4216308,59.6846135 24.5069842,59.5992601 24.5828139,59.5057619 Z" id="Shape" stroke="#172B4D" stroke-width="3.5" fill="#F8F9FA"></path>
                    <path d="M13.1864534,57.5068309 C11.7433664,57.765194 10.4107308,58.0774908 9.21632244,58.4349915 M6.80281892,59.2994756 C4.35123468,60.355049 2.9043854,61.6557792 2.9043854,63.0627158 C2.9043854,66.5916209 12.0067488,69.4523637 23.2350832,69.4523637 C34.4634175,69.4523637 43.565781,66.5916209 43.565781,63.0627158 C43.565781,60.7217199 39.5601079,58.674762 33.5853953,57.5619268" id="Shape" stroke="#172B4D" stroke-width="3.5" stroke-linecap="round"></path>
                    <path d="M23.2350832,34.4720859 C29.4411084,34.4720859 34.4720859,29.4411084 34.4720859,23.2350832 C34.4720859,17.0290579 29.4411084,11.9980804 23.2350832,11.9980804 C17.0290579,11.9980804 11.9980804,17.0290579 11.9980804,23.2350832 C11.9980804,25.8714377 12.9059698,28.2957433 14.4261515,30.2124031 C15.1868507,31.1714999 16.1008681,32.003482 17.1311653,32.6713111 C18.8887183,33.8105406 20.9846447,34.4720859 23.2350832,34.4720859 Z" id="Oval" fill="#E80D70"></path>
                </g>
            </g>
        </g>
    </g>
</svg>