<?xml version="1.0" encoding="UTF-8"?>
<svg width="100px" height="49px" viewBox="0 0 100 49" version="1.1" xmlns="http://www.w3.org/2000/svg" xmlns:xlink="http://www.w3.org/1999/xlink">
    <!-- Generator: Sketch 53.2 (72643) - https://sketchapp.com -->
    <title>Group 11</title>
    <desc>Created with Sketch.</desc>
    <g id="DESKTOP" stroke="none" stroke-width="1" fill="none" fill-rule="evenodd">
        <g id="PRODUCT---2C" transform="translate(-985.000000, -701.000000)" fill-rule="nonzero">
            <g id="Group-2" transform="translate(0.000000, 600.000000)">
                <g id="Group-26" transform="translate(984.500000, 101.000000)">
                    <g id="Group-11" transform="translate(0.500000, 0.000000)">
                        <path d="M68.8919874,14.9671409 C72.4875994,12.740852 76.8384647,12.6406576 80.5319939,14.6976787 C84.1245697,16.6985302 86.2696404,20.3199497 86.2696404,24.3861719 C86.2696404,28.4516348 84.1245697,32.0738136 80.5319939,34.074665 C76.8384647,36.132445 72.4868404,36.0307326 68.8919874,33.8052028 C63.4921175,30.4608357 58.7640052,25.9232447 55.2207677,20.6835339 C50.6406698,13.9105456 44.5348849,8.04765595 37.5622668,3.72942993 C37.5607486,3.72867093 37.5599896,3.72791193 37.5584714,3.72715293 C33.6569629,1.31110198 29.2127349,0.0222377832 24.7055057,0.00098442933 C20.4684979,-0.0255821172 16.2588157,1.06820651 12.525816,3.1472398 C4.68256923,7.51556311 -5.68434189e-14,15.4552089 -5.68434189e-14,24.3861719 C-5.68434189e-14,33.3171347 4.68256923,41.2567804 12.5250568,45.6251037 C16.2238996,47.6851611 20.3925929,48.7721183 24.5870942,48.7721183 C24.6265647,48.7721183 24.6660352,48.7721183 24.7055057,48.7713591 C29.2119758,48.7493467 33.6569629,47.4612417 37.5584714,45.0451908 L37.566062,45.0398774 C42.0421701,42.2670738 46.1577301,38.8559106 49.7449928,34.9779325 C47.7456595,32.8169218 45.9080033,30.5124512 44.2692178,28.0888096 C43.4039029,26.8098132 42.4679962,25.5740825 41.4698475,24.3861719 C38.3774846,28.0660383 34.6801601,31.2768127 30.5979981,33.8052028 C30.5972391,33.8052028 30.5972391,33.8052028 30.5972391,33.8052028 L30.5979981,33.8052028 C27.0031451,36.0314916 22.6515208,36.131686 18.9579916,34.074665 C15.3654158,32.0738136 13.2203451,28.4516348 13.2203451,24.3861719 C13.2203451,20.3199497 15.3654158,16.6985302 18.9579916,14.6969195 C22.6515208,12.6398986 27.0031451,12.740852 30.5979981,14.9671409 C30.5979981,14.9671409 30.5987571,14.9671409 30.5987571,14.9678999 C35.998627,18.3115079 40.7259803,22.849099 44.2692178,28.0888096 C48.8470385,34.8587619 54.9513054,40.7193742 61.9208873,45.0376004 C61.9246827,45.0398774 61.9277187,45.0429136 61.9315141,45.0451908 C65.8337816,47.4612417 70.2780098,48.7501057 74.7844798,48.7713591 C74.8239503,48.7721183 74.8634208,48.7721183 74.9028913,48.7721183 C79.0973926,48.7721183 83.2660859,47.6844019 86.9649287,45.6251037 C94.8074163,41.2567804 99.4899855,33.3171347 99.4899855,24.3861719 C99.4899855,15.4552089 94.8074163,7.51556311 86.9649287,3.1472398 C83.2311698,1.06820651 79.0283191,-0.0179917309 74.7844798,0.000225429558 C70.2780098,0.0222377832 65.8330226,1.31110198 61.9315141,3.72715293 C61.9345503,3.72563474 61.9368275,3.72411654 61.9398635,3.72259854 C61.9368275,3.72411654 61.9345503,3.72563474 61.9315141,3.72715293 C57.4531288,6.50147451 53.3345324,9.9141559 49.7449928,13.7944111 C51.744326,15.9554218 53.5819822,18.2598926 55.2207677,20.6835339 C56.0853236,21.9625305 57.0219893,23.1990202 58.020138,24.3869309 C61.1125009,20.7063055 64.8098254,17.4955308 68.8919874,14.9671409 Z" id="Path" fill="#FFFFFF"></path>
                        <g id="Group" transform="translate(37.114428, 9.424570)" fill="#3F3F3E" opacity="0.178896949">
                            <path d="M4.35541934,14.9616021 C5.35356797,16.1495127 6.28947474,17.3852434 7.15478966,18.6642399 C8.7935751,21.0878814 10.6312313,23.392352 12.6305646,25.5541217 C11.2301204,27.0676642 9.74769883,28.5090971 8.19620419,29.8708297 C6.11109833,27.5268884 3.82484469,24.4618513 2.17998687,22.0283422 C1.55908541,21.1106527 0.882014087,20.2043489 0.164713444,19.3230938 C1.6570026,17.9613612 3.05972395,16.5032294 4.35541934,14.9616021 Z" id="Path"></path>
                            <path d="M12.6336008,4.36604612 L12.6336008,4.36680512 C14.6329342,6.52781582 16.467554,8.83532281 18.1063395,11.2589641 C18.3864283,11.6726454 18.6763846,12.0802546 18.9701364,12.4848273 C18.9048581,12.3945005 18.8373029,12.3056919 18.7720248,12.2146061 C18.980004,12.5053216 19.1925375,12.7922418 19.4073482,13.077644 C19.4240474,13.1004155 19.4399874,13.1231869 19.4574453,13.1451994 C19.9219831,13.7600285 20.4032197,14.363472 20.9003964,14.9547707 C20.9019144,14.9570477 20.9041916,14.9593249 20.9057098,14.9616021 C22.2014052,13.4207339 23.6033675,11.962602 25.0948975,10.6016284 C24.382151,9.72416848 23.7050801,8.81786465 23.0811423,7.89486185 C21.3277405,5.30119369 19.1265005,2.48891959 16.9692849,0.135869703 C15.4534654,1.47103561 14.004442,2.88438374 12.6336008,4.36604612 Z" id="Path"></path>
                        </g>
                    </g>
                </g>
            </g>
        </g>
    </g>
</svg>