<?xml version="1.0" encoding="UTF-8"?>
<svg width="132px" height="132px" viewBox="0 0 132 132" version="1.1" xmlns="http://www.w3.org/2000/svg" xmlns:xlink="http://www.w3.org/1999/xlink">
    <title>LOGO-LA-VOIX-DU-NORD</title>
    <g id="DESKTOP-EN" stroke="none" stroke-width="1" fill="none" fill-rule="evenodd">
        <g id="PRESS-PAGE" transform="translate(-250.000000, -1055.000000)" fill-rule="nonzero">
            <g id="LOGO-LA-VOIX-DU-NORD" transform="translate(250.000000, 1055.000000)">
                <path d="M123.374562,132 L0.885647608,132 C0.423570595,132 0,131.614823 0,131.114094 L0,8.3583309 C0,3.73621243 3.73512252,0 8.35589265,0 L131.114352,0 C131.576429,0 132,0.385176539 132,0.88590604 L132,123.410563 C131.961494,128.148235 128.110852,132 123.374562,132 Z" id="Path" fill="#0854E8"></path>
                <g id="Group" transform="translate(11.000000, 11.000000)" fill="#FFFFFF">
                    <g transform="translate(0.000000, 27.690113)">
                        <polygon id="Path" points="15.2278261 27.1516944 6.00695652 27.1516944 0.229565217 0.576877361 7.00173913 0.576877361 10.3304348 17.1140284 10.7895652 20.767585 11.2486957 17.1140284 14.4243478 0.576877361 21.0817391 0.576877361"></polygon>
                        <path d="M31.106087,27.6131963 L30.8382609,27.6131963 C21.8852174,27.6131963 19.7808696,22.6135925 19.7808696,13.9604321 C19.7808696,3.92276605 24.1426087,0.0769169814 30.9530435,0.0769169814 L31.2591304,0.0769169814 C40.173913,0.0769169814 42.3165217,5.11497927 42.3165217,13.7681397 C42.3165217,23.8442642 37.9547826,27.6131963 31.106087,27.6131963 Z M31.0678261,5.49956417 C27.853913,5.49956417 26.706087,7.84553211 26.706087,13.8450567 C26.706087,19.4984548 27.6626087,22.1520907 31.0295652,22.1520907 C34.2052174,22.1520907 35.3913043,19.7292057 35.3913043,13.8065982 C35.3530435,8.15320003 34.4347826,5.49956417 31.0678261,5.49956417 Z" id="Shape"></path>
                        <polygon id="Path" points="43.693913 27.1516944 43.693913 0.576877361 50.3513043 0.576877361 50.3513043 27.1516944"></polygon>
                        <polygon id="Path" points="65.7321739 13.1143453 72.0452174 27.1516944 64.4313043 27.1516944 61.6765217 20.5752925 60.9878261 18.3062416 60.9495652 18.3062416 60.2991304 20.4983756 57.6973913 27.1516944 50.5426087 27.1516944 56.6643478 13.3066378 51.1165217 0.576877361 58.653913 0.576877361 60.7582609 6.42256795 61.3321739 8.42240947 61.3704348 8.42240947 62.0208696 6.34565097 64.1634783 0.576877361 71.3947826 0.576877361"></polygon>
                        <path d="M9.87130435,55.1494757 C6.5426087,55.1494757 4.28521739,55.1110172 2.18086957,55.0725587 L2.18086957,28.4977416 C4.85913043,28.4592831 7.61391304,28.4208246 10.3304348,28.4208246 C18.8243478,28.4208246 22.5356522,31.4590454 22.5356522,41.5736285 C22.5356522,50.6113738 18.6713043,55.1494757 9.87130435,55.1494757 Z M10.4452174,33.6127209 C10.253913,33.6127209 9.33565217,33.6127209 8.8,33.6511794 L8.8,49.842204 C9.33565217,49.8806625 10.3304348,49.9191209 10.4834783,49.9191209 C14.2713043,49.9191209 15.6869565,47.2654851 15.6869565,41.6505454 C15.6869565,36.2278983 14.5008696,33.6127209 10.4452174,33.6127209 Z" id="Shape"></path>
                        <path d="M33.7078261,55.4186851 C26.9356522,55.4186851 23.9513043,52.3804644 23.9513043,46.2271058 L23.9513043,28.4977416 L30.5704348,28.4977416 L30.5704348,45.8809794 C30.5704348,48.9961172 31.3356522,50.1883304 33.9756522,50.1883304 C36.6921739,50.1883304 37.3043478,48.7269077 37.3043478,45.9194379 L37.3043478,28.4977416 L43.9234783,28.4977416 L43.9234783,45.3041021 C43.9617391,51.4190021 41.0921739,55.4186851 33.7078261,55.4186851 Z" id="Path"></path>
                        <polygon id="Path" points="15.0747826 82.993423 8.18782609 68.1484455 8.18782609 82.993423 2.21913043 82.993423 2.21913043 56.4186059 9.60347826 56.4186059 16.2226087 70.455955 16.2226087 56.4186059 22.1913043 56.4186059 22.1913043 82.993423 15.0747826 82.993423"></polygon>
                        <path d="M34.8556522,83.4549249 L34.5878261,83.4549249 C25.6347826,83.4549249 23.5304348,78.4553211 23.5304348,69.8021606 C23.5304348,59.7644946 27.8921739,55.9186455 34.7026087,55.9186455 L35.0086957,55.9186455 C43.9234783,55.9186455 46.066087,60.9567078 46.066087,69.6098682 C46.066087,79.6859928 41.7043478,83.4549249 34.8556522,83.4549249 Z M34.8173913,61.3412927 C31.6034783,61.3412927 30.4556522,63.6872606 30.4556522,69.6867852 C30.4556522,75.3401833 31.4121739,77.9938192 34.7791304,77.9938192 C37.9547826,77.9938192 39.1408696,75.5709343 39.1408696,69.6483267 C39.1408696,63.9949286 38.1843478,61.3412927 34.8173913,61.3412927 Z" id="Shape"></path>
                        <path d="M59.266087,82.993423 L55.7078261,72.3019625 L53.986087,72.3019625 L53.986087,82.993423 L47.4817391,82.993423 L47.4817391,56.4570644 C49.853913,56.3801474 53.4504348,56.3801474 56.2817391,56.3801474 C62.9773913,56.3801474 65.9617391,59.1876172 65.9617391,63.9949286 C65.9617391,67.1485248 64.6226087,69.6867852 62.173913,70.7636229 L66.8417391,82.993423 L59.266087,82.993423 L59.266087,82.993423 Z M55.6695652,61.4566682 C55.133913,61.4566682 54.5217391,61.4951267 53.9478261,61.5335851 L53.9478261,67.3023588 C54.5217391,67.3023588 55.0956522,67.3023588 55.6695652,67.3023588 C58.5008696,67.3023588 59.1130435,65.8793946 59.1130435,64.341055 C59.1513043,62.6488814 58.6156522,61.4566682 55.6695652,61.4566682 Z" id="Shape"></path>
                        <path d="M75.2208696,83.0703399 C71.8921739,83.0703399 69.6347826,83.0318815 67.5304348,82.993423 L67.5304348,56.4186059 C70.2086957,56.3801474 72.9634783,56.3416889 75.68,56.3416889 C84.173913,56.3416889 87.8852174,59.3799097 87.8852174,69.4944927 C87.8852174,78.532238 83.9826087,83.0703399 75.2208696,83.0703399 Z M75.7565217,61.5720436 C75.5652174,61.5720436 74.6469565,61.5720436 74.1113043,61.6105021 L74.1113043,77.8015267 C74.6469565,77.8399852 75.6417391,77.8784437 75.7947826,77.8784437 C79.5826087,77.8784437 80.9982609,75.2248078 80.9982609,69.6098682 C81.0365217,64.1487625 79.8504348,61.5720436 75.7565217,61.5720436 Z" id="Shape"></path>
                    </g>
                    <g>
                        <polygon id="Path" points="0.267826087 26.9209435 0.267826087 0.346126416 6.92521739 0.346126416 6.92521739 21.4982963 12.8173913 21.4982963 12.8173913 26.882485"></polygon>
                        <path d="M25.9026087,26.9209435 L25.0226087,22.6905095 L18.8243478,22.6905095 L17.9443478,26.9209435 L11.4782609,26.9209435 L17.2556522,0.346126416 L27.0121739,0.346126416 L32.7130435,26.9209435 L25.9026087,26.9209435 L25.9026087,26.9209435 Z M22,6.26873399 L21.8852174,6.26873399 L19.6278261,17.5370718 L24.2956522,17.5370718 L22,6.26873399 Z" id="Shape"></path>
                    </g>
                </g>
            </g>
        </g>
    </g>
</svg>