<?xml version="1.0" encoding="UTF-8"?>
<svg width="177px" height="46px" viewBox="0 0 177 46" version="1.1" xmlns="http://www.w3.org/2000/svg" xmlns:xlink="http://www.w3.org/1999/xlink">
    <title>LOGO-LESOLEIL</title>
    <g id="DESKTOP-EN" stroke="none" stroke-width="1" fill="none" fill-rule="evenodd">
        <g id="PRESS-PAGE" transform="translate(-228.000000, -789.000000)" fill-rule="nonzero">
            <g id="LOGO-LESOLEIL" transform="translate(228.000000, 789.000000)">
                <path d="M0,2.12749218 L0,0.968634675 L11.4037687,0 L11.4037687,41.9979471 L15.7749851,43.6098353 L15.7749851,44.7711957 L0.315076279,44.7711957 L0.315076279,43.6098353 C0.315076279,43.6098353 4.68629263,41.9979471 4.62402459,41.9979471 L4.62402459,3.35392885 L0,2.12749218 Z M34.3769391,28.3194238 C34.4392071,23.8692108 33.1739206,19.0310433 29.8164279,18.7732413 C25.2546714,18.3852868 23.6705724,23.9981118 23.164956,28.3194238 L34.3769391,28.3194238 Z M30.5736073,43.4171095 C32.4130051,43.4809343 35.2623906,42.7062768 39.3795534,38.7065915 L40.6473307,40.3184797 C38.0507534,43.4809343 35.0095824,45.9338076 30.0679908,45.9976324 C21.0092364,46.1252819 15.1186799,41.0931372 15.4972696,30.449419 C15.9418634,21.7392157 21.8324199,16.3866956 29.940964,16.7733986 C37.669673,17.1601016 41.4070007,23.8041346 40.9648977,30.7710457 L23.0379292,30.7710457 C22.9109024,35.9320914 23.2259786,43.1580561 30.5748526,43.4171095 L30.5736073,43.4171095 Z" id="Shape" fill="#D71824"></path>
                <path d="M68.7421418,13.4967225 L67.4950699,13.4327271 L66.3104741,8.90286048 C64.7546968,7.35191445 62.0106486,4.95773563 58.2106319,5.2827316 C54.5331174,5.60647276 51.6690171,7.61166027 51.7927442,11.8805263 C51.9152464,16.2146425 55.7801893,16.9248653 59.2077994,17.961339 C65.1271033,19.7720308 71.6074671,22.2942003 70.9214551,32.8383747 C70.4240963,40.0823969 65.6881632,45 56.5274524,44.7389994 C51.9789475,44.6097539 48.9249689,43.64104 45,41.1188705 L45.4985838,31.026428 L46.6207035,31.1556735 L48.2401819,37.4949772 C49.9858375,40.4701334 54.1607108,42.2808252 57.3996677,42.2808252 C61.3871127,42.2808252 64.253663,39.5654148 64.5660435,34.6490665 C65.0009261,27.4677848 57.7745243,26.1100797 55.8414403,25.4638522 C52.3525791,24.364638 44.9375239,22.2289502 45.8097392,12.7212495 C46.3707991,6.38194578 50.7955767,3.4067896 58.7079906,3.01779828 C62.5717085,2.82455743 67.557546,4.24751277 69.2395005,5.21748144 L68.7421418,13.4967225 Z M88.4698881,42.8643122 C93.5794528,42.8643122 95.2638574,37.3657317 95.2001563,30.0552045 C95.1364552,23.264169 93.5794528,17.8960888 88.4698881,17.8960888 C83.3590984,17.8960888 81.73962,23.5879101 81.73962,30.0552045 C81.73962,37.0407357 83.3590984,42.8643122 88.4698881,42.8643122 M102.988843,29.6034727 C103.299998,39.047178 97.0695391,45 88.4698881,45 C79.8702372,45 73.7010289,39.047178 74.0146344,29.6034727 C74.2633137,19.7067806 80.0576655,15.7629106 88.346161,15.7629106 C96.8833358,15.7629106 102.740164,19.7067806 102.988843,29.6034727" id="Shape" fill="#221F20"></path>
                <path d="M102,2.12749218 L102,0.968634675 L113.461619,0 L113.461619,41.9979471 L117.85549,43.6098353 L117.85549,44.7711957 L102.320465,44.7711957 L102.320465,43.6098353 C102.320465,43.6098353 106.713084,41.9979471 106.649241,41.9979471 L106.649241,3.35392885 L102,2.12749218 L102,2.12749218 Z M136.339793,28.3194238 C136.402383,23.8692108 135.129287,19.0310433 131.754394,18.7732413 C127.170247,18.3852868 125.57919,23.9981118 125.068449,28.3194238 L136.339793,28.3194238 L136.339793,28.3194238 Z M132.518001,43.4171095 C134.366932,43.4809343 137.231085,42.7062768 141.370838,38.7065915 L142.645186,40.3184797 C140.031396,43.4809343 136.975715,45.9338076 132.008512,45.9976324 C122.902809,46.1252819 116.982975,41.0931372 117.362275,30.449419 C117.810425,21.7392157 123.731511,16.3866956 131.883331,16.7733986 C139.652096,17.1601016 143.408793,23.8041346 142.961895,30.7710457 L124.942016,30.7710457 C124.814331,35.9320914 125.13104,43.1580561 132.518001,43.4171095 Z M155.796755,6.51513193 C155.796755,8.51497458 153.950328,10.5148172 151.84853,10.5148172 C149.745481,10.5148172 147.901557,8.51497458 147.901557,6.51513193 C147.901557,4.51403782 149.746733,2.51544664 151.84853,2.51544664 C153.95158,2.51544664 155.796755,4.51528928 155.796755,6.51513193 Z M144.397727,19.223769 L144.397727,18.0624086 L155.796755,17.0962769 L155.796755,42.0630233 L160.001602,43.6098353 L160.001602,44.7699443 L144.845877,44.7699443 L144.845877,43.6098353 L149.04822,42.0630233 L149.04822,20.4489542 L144.397727,19.2225176 L144.397727,19.223769 Z M161.145761,2.12749218 L161.145761,0.968634675 L172.606129,0 L172.606129,41.9979471 L177,43.6098353 L177,44.7711957 L161.463722,44.7711957 L161.463722,43.6098353 C161.463722,43.6098353 165.857594,41.9979471 165.795003,41.9979471 L165.795003,3.35392885 L161.145761,2.12749218 Z" id="Shape" fill="#221F20"></path>
            </g>
        </g>
    </g>
</svg>