<?xml version="1.0" encoding="UTF-8"?>
<svg width="83px" height="64px" viewBox="0 0 83 64" version="1.1" xmlns="http://www.w3.org/2000/svg" xmlns:xlink="http://www.w3.org/1999/xlink">
    <!-- Generator: Sketch 53.2 (72643) - https://sketchapp.com -->
    <title>Icon Learning</title>
    <desc>Created with Sketch.</desc>
    <g id="DESKTOP" stroke="none" stroke-width="1" fill="none" fill-rule="evenodd">
        <g id="JOBS" transform="translate(-155.000000, -696.000000)" fill-rule="nonzero">
            <g id="Icon-Learning" transform="translate(155.348761, 696.000000)">
                <path d="M79.4421545,17.325888 L46.6863847,1.07539995 C43.8626114,-0.358466649 39.0621968,-0.358466649 36.2384236,1.07539995 L2.72964749,17.325888 C0.376503102,18.4729813 3.69482223e-13,20.0980301 3.69482223e-13,20.9583501 C3.69482223e-13,21.8186701 0.376503102,23.3481278 2.72964749,24.5908121 L5.45929498,25.9290876 L5.45929498,41.2236647 C3.76503102,41.8928024 2.54139594,43.6134423 2.54139594,45.5252645 C2.54139594,47.4370866 3.76503102,49.1577265 5.3651692,49.8268643 L1.12950931,63.4963925 L12.989357,63.4963925 L8.75369712,49.8268643 C10.4479611,49.1577265 11.5774704,47.4370866 11.5774704,45.5252645 C11.5774704,43.5178512 10.3538353,41.8928024 8.65957135,41.2236647 L8.65957135,27.5541364 L13.6482375,30.0395052 L13.6482375,49.9224554 C13.6482375,50.2092287 13.7423632,50.496002 13.9306148,50.7827753 C14.4012437,51.356322 23.1549408,63.4963925 41.0388381,63.4963925 C58.9227355,63.4963925 67.6764326,51.2607308 68.0529357,50.7827753 C68.2411873,50.496002 68.335313,50.2092287 68.335313,49.9224554 L68.335313,30.1350963 L79.4421545,24.5908121 C81.7952989,23.4437189 82.171802,21.8186701 82.171802,20.9583501 C82.0776763,20.0980301 81.7952989,18.4729813 79.4421545,17.325888 Z M65.3232882,49.4444998 C63.8172758,51.356322 55.7224591,60.5330682 41.0388381,60.5330682 C26.3552171,60.5330682 18.2604005,51.356322 16.754388,49.4444998 L16.754388,31.3777807 L36.2384236,40.8413002 C37.6503102,41.510438 39.5328257,41.8928024 41.4153412,41.8928024 C43.3919825,41.8928024 45.274498,41.510438 46.6863847,40.7457091 L65.3232882,31.4733718 L65.3232882,49.4444998 Z M78.1243937,21.9142612 L66.8293006,27.5541364 C66.3586717,27.5541364 65.9821686,27.7453187 65.7939171,28.1276831 L45.3686238,38.1647493 C43.3919825,39.2162514 39.5328257,39.2162514 37.4620587,38.1647493 L12.3304766,25.9290876 L41.2270897,22.4878078 C42.0742217,22.3922167 42.6389763,21.6274878 42.5448505,20.862759 C42.4507248,20.002439 41.6977186,19.4288924 40.9447124,19.5244835 L7.43593627,23.53931 L4.04740835,21.9142612 C3.20027637,21.5318967 3.01202482,21.0539412 3.01202482,21.0539412 C3.01202482,20.9583501 3.20027637,20.5759857 4.04740835,20.1936212 L37.5561844,3.84754204 C38.591568,3.3695865 40.0034546,3.08281318 41.4153412,3.08281318 C42.9213536,3.08281318 44.427366,3.3695865 45.3686238,3.84754204 L78.1243937,20.0980301 C78.9715257,20.4803946 79.1597772,20.862759 79.1597772,21.0539412 C79.1597772,21.0539412 78.8773999,21.5318967 78.1243937,21.9142612 Z" id="Shape" fill="#172B4D"></path>
                <circle id="Oval" fill="#E80D70" cx="6.9985511" cy="45.518337" r="4.62373472"></circle>
            </g>
        </g>
    </g>
</svg>