<?xml version="1.0" encoding="UTF-8"?>
<svg width="74px" height="72px" viewBox="0 0 74 72" version="1.1" xmlns="http://www.w3.org/2000/svg" xmlns:xlink="http://www.w3.org/1999/xlink">
    <!-- Generator: Sketch 53.2 (72643) - https://sketchapp.com -->
    <title>Group 21</title>
    <desc>Created with Sketch.</desc>
    <g id="FINAL-WEBSITE" stroke="none" stroke-width="1" fill="none" fill-rule="evenodd">
        <g id="HOMEPAGE" transform="translate(-770.000000, -2497.000000)" fill-rule="nonzero">
            <g id="Group-21" transform="translate(770.000000, 2497.636351)">
                <g id="Group-7-Copy" transform="translate(0.889316, 0.062024)">
                    <path d="M36.2311541,26.7491362 L36.2311541,26.7491362 C31.3105615,26.7491362 27.3216331,30.6737271 27.3216331,35.5149553 C27.3216331,40.3561835 31.3105615,44.2807744 36.2311541,44.2807744 L36.2311541,44.2807744 C41.1278406,44.2338187 45.0911832,40.349961 45.1584868,35.5324796 C45.1834292,33.2244958 44.2557232,31.0052774 42.5875602,29.3824198 C40.9117114,27.7037294 38.6227147,26.7547468 36.2311541,26.7471523 L36.2311541,26.7491362 Z" id="Path_618" fill="#E80D70"></path>
                    <path d="M47.0186163,26.0225352 C47.6380685,26.2562666 48.3400408,26.0719777 48.7587926,25.5656864 L50.3053735,24.0440504 C51.2718955,23.1310688 52.2384175,22.1421844 53.1670938,21.1905354 C53.5763323,20.6878837 54.2917768,20.5439715 54.8686966,20.8482568 C55.9496879,21.3164696 57.1501249,21.4491157 58.309748,21.2284868 C61.4655626,20.7242542 63.76918,18.0208322 63.7231448,14.8755671 L63.7231448,14.8755671 C63.7262269,12.1498569 61.9732118,9.72170953 59.3563283,8.82697462 C58.6229878,8.57463008 57.8515648,8.44607547 57.0746668,8.44674464 C55.3493611,8.4798353 53.713652,9.20889965 52.5506449,10.4631808 C50.6583578,12.3650468 50.1918362,14.6478588 51.1969318,17.3109007 C51.4413471,17.8616967 51.3013633,18.5045142 50.8490421,18.9084395 C49.8046452,19.8973238 48.7609761,20.9248757 47.7558805,21.9159082 L46.4800423,23.1711684 C45.938557,23.70392 45.7456893,24.1221014 45.8250198,24.5789502 C45.8642453,25.2632698 46.3456216,25.8454662 47.0186163,26.0225352 L47.0186163,26.0225352 Z M55.0244464,12.669374 C55.5985459,12.1050515 56.3781441,11.7899916 57.1896596,11.7943438 L57.2282331,11.7943438 C58.9580437,11.7943438 60.3603322,13.1740148 60.3603322,14.8759251 C60.3603322,16.5778355 58.9580437,17.9575065 57.2282331,17.9575065 L57.2282331,17.9575065 C56.4029853,17.9529622 55.6133957,17.6259581 55.0332707,17.048475 C54.4531457,16.470992 54.1300383,15.6903664 54.1350715,14.8784314 C54.0934207,14.0511868 54.4171394,13.2465891 55.0229908,12.6715222 L55.0244464,12.669374 Z" id="Path_619" fill="#172B4D"></path>
                    <path d="M11.677243,20.2403185 C13.4590379,21.425452 15.7299788,21.6411192 17.7092721,20.8131697 C17.9062988,20.7315023 18.1149742,20.6802957 18.3279045,20.6613641 C18.6892015,20.6767981 19.0267006,20.8429561 19.255853,21.1182129 C20.7252867,22.6018975 22.1561469,24.0096793 23.5498891,25.3787937 C23.7946442,25.620339 24.0832209,25.8146399 24.4006905,25.9516449 C25.1376117,26.1903942 25.9438123,25.8890629 26.3337346,25.2291363 C26.7347318,24.5646321 26.6229796,23.7166595 26.062992,23.1747487 C24.4778376,21.57721 23.0469774,20.16728 21.6161173,18.7995978 C21.206972,18.4191367 21.0698343,17.8342698 21.2682275,17.3159132 L21.3453746,17.011586 C21.5761792,16.3085422 21.7189132,15.5804124 21.7704114,14.8433442 C21.757634,13.1257202 21.0478465,11.4843182 19.7988889,10.2841478 C18.5499314,9.08397748 16.8653477,8.42453794 15.11975,8.45247316 L14.8104338,8.45247316 C14.5913683,8.44503668 14.3720756,8.4577423 14.1554114,8.49042455 C10.9749849,9.01717252 8.66012958,11.7470941 8.70344104,14.9199631 C8.75762549,17.0633512 9.86655489,19.0473093 11.677243,20.2403185 Z M13.1081032,12.67009 C13.6872707,12.0898984 14.4856471,11.772897 15.3118899,11.7950598 C17.0327192,11.8366511 18.4055707,13.2213659 18.4050516,14.9149506 C18.4100848,15.7268856 18.0869773,16.5075112 17.5068523,17.0849943 C16.9267273,17.6624774 16.1371377,17.9894815 15.3118899,17.9940258 L15.3118899,17.9940258 C14.4706378,18.0074808 13.6603924,17.6818397 13.06932,17.0927272 C12.4782476,16.5036147 12.1577792,15.7022912 12.1823381,14.874851 C12.1988765,14.0506415 12.5301604,13.2627599 13.1102866,12.6679418 L13.1081032,12.67009 Z" id="Path_620" fill="#172B4D"></path>
                    <path d="M13.8424562,37.2074547 L16.3941326,37.2074547 L16.3941326,37.1695033 L17.979287,37.1695033 C18.7528568,37.1950651 19.5272433,37.1823987 20.2995221,37.1315519 C20.9161353,37.1257961 21.4802944,36.7890849 21.7703577,36.2537023 C22.0604209,35.7183198 22.0300448,35.069804 21.6911633,34.5629383 C21.3522817,34.0560725 20.7590378,33.7718387 20.1445001,33.8219041 L18.7915148,33.8219041 C17.244934,33.8219041 15.661963,33.8219041 14.1131988,33.8598555 C13.3745269,33.9281481 12.6854279,33.4866422 12.4501695,32.7943523 C11.6759575,31.126711 10.2117413,29.8660231 8.42905941,29.3321829 C7.82786496,29.1507444 7.20198523,29.0609123 6.57316242,29.0658071 C5.34309253,29.0754495 4.13937788,29.4175365 3.09353752,30.0546915 C0.870903836,31.3368536 -0.326081624,33.8280545 0.0775229634,36.3317084 C0.43548496,39.2179575 2.73040272,41.5016627 5.65971071,41.8866226 C8.58901871,42.2715825 11.4126896,40.6605453 12.5280444,37.9679146 C12.7630562,37.4703772 13.2862903,37.1676573 13.8424562,37.2074547 L13.8424562,37.2074547 Z M8.77694912,37.7402063 C8.19177736,38.3114939 7.39744614,38.6268891 6.57316242,38.6152364 L6.49601533,38.6152364 C4.77357519,38.5231717 3.42815865,37.1165656 3.43924382,35.4194429 C3.46902912,34.6051526 3.83140121,33.8371084 4.4443394,33.2891525 C5.05370136,32.7021033 5.87316068,32.3742058 6.72600099,32.3761709 C8.39423448,32.491678 9.69122438,33.8507198 9.703442,35.4960617 C9.74522443,36.342076 9.40570458,37.1631685 8.77549351,37.7402063 L8.77694912,37.7402063 Z" id="Path_621" fill="#172B4D"></path>
                    <path d="M61.0164464,50.9408458 C59.2153303,49.6432928 56.8599491,49.3553121 54.7908218,50.1796698 C54.2355434,50.4587009 53.5574368,50.3157574 53.1670938,49.8373912 C51.7362337,48.3918967 50.3048883,46.9836376 48.8730577,45.6126137 C48.5822529,45.3143991 48.20331,45.1139523 47.7900872,45.0397625 C47.7129401,45.0397625 47.5964917,45.0018111 47.5193446,45.0018111 C46.8390592,45.0196894 46.2378833,45.4420117 45.9998284,46.0692619 C45.7617734,46.6965121 45.9344868,47.403144 46.4363741,47.8553261 L46.6685432,48.1217019 C48.0222563,49.4528649 49.4138151,50.8606467 50.8061018,52.1925257 C51.2793976,52.5843087 51.4225965,53.2418902 51.1539915,53.7900644 C49.9709179,56.7016158 51.1195285,60.0271458 53.8606899,61.6266687 C55.8750981,62.808476 58.378205,62.8396327 60.4223566,61.7083431 C62.4665082,60.5770536 63.7392781,58.4562232 63.7588071,56.1487792 L63.7588071,56.1487792 C63.7917994,54.0679438 62.7604938,52.1098859 61.0135352,50.9365495 L61.0164464,50.9408458 Z M59.3927185,58.3592687 C58.8335695,58.9223158 58.0661628,59.2380741 57.2660789,59.2342989 L57.2275053,59.2342989 C56.3359057,59.2406164 55.4816515,58.8824871 54.8686966,58.2454146 C54.289343,57.6715591 53.9807766,56.885187 54.0178952,56.0771728 C54.0997352,54.4445842 55.416399,53.1337351 57.0746668,53.0339009 L57.1132403,53.0339009 C57.9630567,53.0269502 58.779555,53.3586873 59.3767735,53.9535574 C59.973992,54.5484275 60.3010827,55.3557825 60.283549,56.1917431 C60.3418973,57.0108466 60.0129256,57.8106312 59.3919907,58.3592687 L59.3927185,58.3592687 Z" id="Path_622" fill="#172B4D"></path>
                    <path d="M38.8606754,58.854069 C38.2408446,58.6289456 37.8576317,58.0162315 37.9327269,57.3703844 C37.9713004,56.6471598 37.9327269,55.9246512 37.9327269,55.2021426 L37.9327269,51.2838405 C37.9512993,50.827491 37.7805405,50.3833158 37.4596547,50.0532919 C37.1387689,49.7232681 36.695322,49.5357466 36.2311241,49.5337801 L36.2311241,49.5337801 C35.7665669,49.5464927 35.3271708,49.7442635 35.0136341,50.0817686 C34.7000974,50.4192737 34.5393008,50.8675775 34.5680948,51.3239401 L34.5680948,52.6171516 C34.5680948,54.1387876 34.5680948,55.6962268 34.6066684,57.2579623 C34.6774022,57.9940421 34.2314165,58.6834886 33.5236979,58.9321199 C31.5473664,59.7669449 30.1555584,61.5541396 29.8504775,63.6488334 C29.5398607,65.3654347 29.9746361,67.1315473 31.0491686,68.5180685 C32.4277232,70.3052948 34.6495571,71.2614798 36.9192379,71.0443025 C39.1889188,70.8271252 41.181851,69.4676449 42.1845505,67.4525653 C42.9533235,65.8929159 43.0372625,64.0910593 42.4167196,62.46876 C41.7467799,60.8595175 40.4735847,59.5653246 38.8606754,58.854069 L38.8606754,58.854069 Z M38.4356386,66.8811462 C37.8503679,67.4568839 37.0594254,67.7845544 36.2318519,67.7941278 L36.1547048,67.7941278 C35.0357136,67.7873485 34.0053991,67.193738 33.4518708,66.2369037 C32.8983425,65.2800694 32.9056946,64.1053773 33.4711576,63.1553223 C34.0366205,62.2052674 35.0742871,61.6241857 36.1932783,61.6309651 L36.2318519,61.6309651 C37.9456388,61.6651927 39.3266149,63.023895 39.3614037,64.7100402 C39.3887687,65.5319752 39.0504476,66.3247832 38.4349108,66.8811462 L38.4356386,66.8811462 Z" id="Path_623" fill="#172B4D"></path>
                    <path d="M33.7172934,12.2519087 C34.2617573,12.4487165 34.608536,12.9758175 34.5680948,13.5451202 C34.5295213,15.523605 34.5680948,17.5779926 34.5680948,19.5178099 L34.5680948,19.6703316 C34.5532921,19.9011918 34.5793965,20.1328265 34.6452419,20.3548887 C34.905339,21.1075476 35.6614381,21.5818607 36.4647488,21.4962947 C37.2994454,21.4152101 37.9352443,20.7239823 37.9341825,19.898756 L37.9341825,19.8228532 C37.9341825,17.8830359 37.972756,15.9045511 37.9341825,13.9260663 C37.8195883,13.1295867 38.3120019,12.3697508 39.0943001,12.1359063 C41.4916823,11.1090705 42.961116,8.40736113 42.806094,6.65801681 L42.806094,6.65801681 C42.6124985,3.95702345 41.6459765,2.20696307 39.7129324,0.9517029 C38.7125869,0.312887417 37.5414605,-0.0181751245 36.3490281,0.000769926456 C35.7487848,0.00414537418 35.1512927,0.0808744301 34.5702782,0.229194338 C32.8374613,0.648798261 31.3640312,1.76632429 30.5105945,3.30826948 C29.6271409,4.90866453 29.4727474,6.80199396 30.0855577,8.52049923 C30.7326489,10.1969535 32.0446261,11.5425661 33.7202046,12.2483283 L33.7172934,12.2519087 Z M34.0266096,4.1489286 C34.631139,3.57809932 35.4319616,3.25214855 36.2696976,3.23594702 C37.9837713,3.27219332 39.3540787,4.64968728 39.3540787,6.33650408 C39.3540787,8.02332087 37.9837713,9.40081483 36.2696976,9.43706114 L36.2311241,9.43706114 C34.4908809,9.40492891 33.1063165,7.99141208 33.1379624,6.27921896 C33.1153126,5.47734097 33.4380638,4.70337238 34.0266096,4.14821253 L34.0266096,4.1489286 Z" id="Path_624" fill="#172B4D"></path>
                    <path d="M25.7136467,45.1206778 C24.9921775,44.7970194 24.1400435,44.983166 23.6255806,45.5768105 C22.1561469,47.0225437 20.7252867,48.4303255 19.2951543,49.8731944 C18.9108627,50.3343218 18.2552427,50.4758883 17.7099999,50.215473 C16.9410561,49.8880491 16.1119128,49.7196305 15.2740442,49.7206728 C14.2495007,49.7252308 13.2412543,49.9733497 12.3351767,50.4438974 C9.54522157,51.8161459 8.14710018,54.9511473 9.00984599,57.9002717 C9.8089434,60.6725467 12.3837794,62.5842277 15.3126177,62.5797499 L15.3511913,62.5797499 C17.3984435,62.5782554 19.3225634,61.6174859 20.532419,59.9926107 C21.7251783,58.4686077 22.112683,56.4783786 21.5768159,54.6285754 C21.0897098,53.4691811 21.4733082,52.1324049 22.5047644,51.3948304 C23.50986,50.5198002 24.4771098,49.533064 25.4050583,48.5792668 C25.6372274,48.3508424 25.8300951,48.1231341 26.0600808,47.9348092 C26.4963335,47.5204998 26.7115765,46.9299225 26.642323,46.3372705 C26.5375039,45.813634 26.1955578,45.3656747 25.7136467,45.1206778 L25.7136467,45.1206778 Z M17.399956,58.4358876 C16.8622623,58.9841323 16.124722,59.2990249 15.3504635,59.3109178 L15.3504635,59.3109178 C14.0618607,59.3672275 12.8688001,58.6441824 12.3402024,57.4865725 C11.8116048,56.3289626 12.0545078,54.9711966 12.9530812,54.0607366 C13.5136491,53.4676613 14.2952622,53.1243871 15.1182944,53.1098037 L15.1182944,53.1098037 C16.8530458,53.0923866 18.2815152,54.4468255 18.3279045,56.1530756 C18.3554009,57.0077752 18.0190442,57.8349742 17.399956,58.4351715 L17.399956,58.4358876 Z" id="Path_625" fill="#172B4D"></path>
                    <path d="M70.0259165,30.5502078 C68.7195911,29.4554467 67.0154313,28.9332 65.3082992,29.1044746 C62.8743768,29.2964169 60.761577,30.8295822 59.8563288,33.0607281 C59.6933896,33.563911 59.1907325,33.882801 58.6576377,33.8211881 C57.9618583,33.7832367 57.2267775,33.8211881 56.5309981,33.8211881 L54.9458437,33.8211881 C53.9793217,33.8211881 53.0127997,33.8211881 52.0462776,33.8591395 C51.6144289,33.88658 51.2117742,34.083165 50.9283697,34.404927 C50.6449651,34.726689 50.5044568,35.1467816 50.5382703,35.5712484 C50.5837246,36.4581928 51.3374322,37.1489962 52.2398732,37.1308358 L58.619792,37.1308358 C59.2072421,37.101471 59.7434368,37.4584265 59.9342037,38.005866 C60.7996333,40.097521 62.7574454,41.5568229 65.0382843,41.810314 C66.9466117,42.0870104 68.8797623,41.4997842 70.2973869,40.2127752 C71.6921541,38.9623552 72.4642421,37.1762762 72.4122426,35.3204582 C72.3602431,33.4646402 71.4893128,31.7231251 70.0266443,30.5502078 L70.0259165,30.5502078 Z M68.0928724,37.7402063 C67.5402615,38.289786 66.7904719,38.6039947 66.0048064,38.6152364 L65.9662328,38.6152364 C64.2279434,38.5704491 62.8235563,37.2056326 62.7566227,35.4960617 C62.7698091,34.6636852 63.1172865,33.8702722 63.7231448,33.2891525 C64.3085034,32.7135436 65.0993901,32.3858962 65.9269315,32.3761709 L65.965505,32.3761709 C67.681302,32.4416725 69.0506868,33.8065166 69.0950568,35.4953457 C69.0582402,36.3407882 68.7003501,37.1418687 68.0921446,37.7402063 L68.0928724,37.7402063 Z" id="Path_626" fill="#172B4D"></path>
                </g>
            </g>
        </g>
    </g>
</svg>