<?xml version="1.0" encoding="UTF-8"?>
<svg width="60px" height="70px" viewBox="0 0 60 70" version="1.1" xmlns="http://www.w3.org/2000/svg" xmlns:xlink="http://www.w3.org/1999/xlink">
    <!-- Generator: Sketch 53.2 (72643) - https://sketchapp.com -->
    <title>Group 12</title>
    <desc>Created with Sketch.</desc>
    <g id="FINAL-WEBSITE" stroke="none" stroke-width="1" fill="none" fill-rule="evenodd">
        <g id="HOMEPAGE" transform="translate(-150.000000, -2144.000000)">
            <g id="Group-12" transform="translate(152.000000, 2144.232581)">
                <g id="Group-20" transform="translate(0.185026, 0.497426)">
                    <path d="M43.7409369,9.33175461 L49.9411433,54.5525914 L50.4981887,59.0893624 C50.6776426,60.5508967 49.638311,61.8811805 48.1767766,62.0606343 L9.1432316,66.853351 C7.68169725,67.0328049 6.35141347,65.9934733 6.17195962,64.5319389 L0.162464972,15.5885327 C0.0727380456,14.8577655 0.592403843,14.1926236 1.32317102,14.1028967 C1.32778717,14.1023299 1.33240626,14.1017873 1.3370281,14.1012688 L4.5753916,13.7380089 M7.19396947,13.4442727 L10.2514854,13.1012992" id="Shape" stroke="#172B4D" stroke-width="3.5" fill="#FFFFFF" stroke-linecap="round"></path>
                    <path d="M16.4129036,1.75 C15.1702629,1.75 14.1629036,2.75735931 14.1629036,4 L14.1629036,51.9905277 C14.1629036,53.2331683 15.1702629,54.2405277 16.4129036,54.2405277 L53.0720149,54.2405277 C54.3146556,54.2405277 55.3220149,53.2331683 55.3220149,51.9905277 L55.3220149,12.1740293 C55.3220149,11.5770509 55.0847709,11.0045436 54.6625129,10.5825468 L46.4834242,2.40851759 C46.0615074,1.98686182 45.4894221,1.75 44.8929263,1.75 L16.4129036,1.75 Z" id="Rectangle" stroke="#172B4D" stroke-width="3.5" fill="#FFFFFF"></path>
                    <path d="M45.7405986,1.60161706 L45.7405986,9.33175461 C45.7405986,10.4361373 46.6358777,11.3314163 47.7402603,11.3314163 L53.0284282,11.3314163" id="Shape" stroke="#172B4D" stroke-width="3.5" stroke-linecap="round" stroke-linejoin="round"></path>
                    <path d="M26.9637586,11.3314163 L40.3323597,11.3314163" id="Line" stroke="#172B4D" stroke-width="2.5" stroke-linecap="round" stroke-linejoin="round"></path>
                    <path d="M26.9637586,19.3300631 L49.0733681,19.3300631" id="Line" stroke="#172B4D" stroke-width="2.5" stroke-linecap="round" stroke-linejoin="round"></path>
                    <path d="M26.9637586,27.9952638 L49.0733681,27.9952638" id="Line" stroke="#E80D70" stroke-width="2.5" stroke-linecap="round" stroke-linejoin="round"></path>
                    <path d="M26.9637586,36.6604645 L49.0733681,36.6604645" id="Line" stroke="#172B4D" stroke-width="2.5" stroke-linecap="round" stroke-linejoin="round"></path>
                    <path d="M26.9637586,45.3256652 L40.3323597,45.3256652" id="Line" stroke="#172B4D" stroke-width="2.5" stroke-linecap="round" stroke-linejoin="round"></path>
                    <rect id="Rectangle" stroke="#172B4D" fill="#172B4D" x="19.7298402" y="9.9670372" width="2.72875822" height="2.72875822"></rect>
                    <rect id="Rectangle-Copy-8" stroke="#172B4D" fill="#172B4D" x="19.7298402" y="44.133445" width="2.72875822" height="2.72875822"></rect>
                    <rect id="Rectangle-Copy-9" stroke="#172B4D" fill="#172B4D" x="19.7298402" y="35.2116766" width="2.72875822" height="2.72875822"></rect>
                    <rect id="Rectangle-Copy-10" stroke="#E80D70" fill="#E80D70" x="19.7298402" y="26.7967968" width="2.72875822" height="2.72875822"></rect>
                    <rect id="Rectangle-Copy-11" stroke="#172B4D" fill="#172B4D" x="19.7298402" y="18.381917" width="2.72875822" height="2.72875822"></rect>
                </g>
            </g>
        </g>
    </g>
</svg>