<?xml version="1.0" encoding="UTF-8"?>
<svg width="69px" height="69px" viewBox="0 0 69 69" version="1.1" xmlns="http://www.w3.org/2000/svg" xmlns:xlink="http://www.w3.org/1999/xlink">
    <!-- Generator: Sketch 53.2 (72643) - https://sketchapp.com -->
    <title>Icon Team Spirit</title>
    <desc>Created with Sketch.</desc>
    <g id="DESKTOP" stroke="none" stroke-width="1" fill="none" fill-rule="evenodd">
        <g id="JOBS" transform="translate(-770.000000, -1045.000000)" fill-rule="nonzero">
            <g id="Icon-Team-Spirit" transform="translate(770.000000, 1045.251335)">
                <path d="M68.4057313,1.35649943 C68.3346548,0.781653769 67.8819209,0.328918599 67.3072452,0.257841873 C62.1284268,-0.38269081 56.7843807,0.175648881 51.85113,1.87188991 C46.9173741,3.56829937 42.3593806,6.41490544 38.6703063,10.1039897 L30.2517789,18.5225395 L18.0998806,20.0897645 C17.8228169,20.1254713 17.5656276,20.2519609 17.3680618,20.4493588 L5.65171781,32.1657341 C5.32008345,32.4973693 5.19948913,32.9856428 5.33877893,33.433662 C5.47773188,33.8816812 5.85383119,34.2156744 6.31498654,34.3010676 L15.1737842,35.9418957 L16.9144857,37.6826018 L13.2085685,39.6894245 C12.8579018,39.8792432 12.6173869,40.223679 12.559953,40.6183064 C12.5025191,41.0129338 12.6347349,41.4114351 12.9166831,41.693384 L26.9699629,55.7467014 C27.2086252,55.9853642 27.5306591,56.1167383 27.8633041,56.1167383 C27.9236012,56.1167383 27.9845721,56.1123591 28.0452061,56.1036009 C28.4398325,56.0461668 28.7842674,55.8056513 28.9740855,55.4549836 L30.9810713,51.7490566 L32.7217728,53.4897627 L34.3625965,62.348584 C34.4481578,62.809909 34.7819818,63.1858409 35.2299998,63.3249626 C35.3531205,63.3631958 35.4792729,63.3817229 35.6045832,63.3817229 C35.9347017,63.3817229 36.2574094,63.2522016 36.4980928,63.011686 L48.2144367,51.2953108 C48.4118341,51.0979129 48.5383234,50.8405545 48.5740301,50.5636585 L50.1414193,38.4115593 L58.5599467,29.992841 C62.2490211,26.3037568 65.0956195,21.7459196 66.7920245,16.8121505 C68.4880926,11.8788867 69.0460939,6.53415265 68.4057313,1.35649943 Z M15.3662972,33.4085662 L9.13632083,32.2546642 L18.8500581,22.5405641 L27.3273668,21.4472963 L15.3662972,33.4085662 Z M27.558955,52.7631631 L15.9005502,41.1048957 L18.7781394,39.5465974 L29.1170807,49.8857347 L27.558955,52.7631631 Z M46.1230686,49.8136474 L36.4091629,59.527579 L35.2550955,53.2977544 L47.2163335,41.3364845 L46.1230686,49.8136474 Z M56.773096,28.2068277 L33.8921776,51.0878072 L17.5759017,34.7714877 L40.4568201,11.8903398 C43.7812482,8.56573435 47.8679807,5.98255009 52.2951058,4.39696642 C52.8669182,7.34311359 54.3074813,10.076199 56.4475251,12.2160801 C58.5874004,14.3561296 61.3203101,15.7966965 64.2666178,16.3686789 C62.68087,20.7954789 60.0975242,24.8822223 56.773096,28.2068277 Z" id="Shape" fill="#172B4D"></path>
                <path d="M65.0270694,13.9414592 C62.4664614,13.5047247 60.0845553,12.2802512 58.2338704,10.4297299 C56.3831856,8.57920861 55.1588839,6.19712769 54.7221505,3.63651282 C58.3839396,2.64969163 62.230494,2.31317196 66.0051297,2.6584499 C66.3505752,6.43309569 66.013888,10.2796603 65.0270694,13.9414592 Z" id="Path" fill="#E80D70"></path>
                <path d="M18.9768309,49.6868403 C18.4567337,49.1669141 17.6139277,49.1669141 17.094008,49.6868403 L5.67175003,61.1090647 C5.15183032,61.628991 5.15183032,62.4719851 5.67175003,62.9917339 C5.93179864,63.2516082 6.2726132,63.3817229 6.61325025,63.3817229 C6.9538873,63.3817229 7.29470186,63.2517858 7.55475047,62.9917339 L18.9768309,51.5695095 C19.4965731,51.0497607 19.4965731,50.2067666 18.9768309,49.6868403 Z" id="Path" fill="#172B4D"></path>
                <path d="M17.3168257,54.9303803 L12.6758844,59.5715063 C12.2070038,60.0404056 12.2070038,60.8006659 12.6758844,61.2694051 C12.9104047,61.5037746 13.2177624,61.6211195 13.52496,61.6211195 C13.8321577,61.6211195 14.1395154,61.5039347 14.3740357,61.2694051 L19.0149771,56.628279 C19.4838577,56.1593798 19.4838577,55.3991195 19.0149771,54.9303803 C18.5459364,54.4614811 17.7858664,54.4614811 17.3168257,54.9303803 Z" id="Path" fill="#172B4D"></path>
                <path d="M12.3248579,61.6211195 C11.5871437,61.6211195 10.9138443,62.0968259 10.6646483,62.7899377 C10.4112206,63.494566 10.6470165,64.3037839 11.2326271,64.7679737 C11.8314028,65.24274 12.7057047,65.2685936 13.3315158,64.8302574 C13.9991731,64.3625421 14.2699974,63.4647168 13.9519199,62.7093214 C13.690264,62.0571054 13.0244875,61.6211195 12.3248579,61.6211195 Z" id="Path" fill="#172B4D"></path>
                <path d="M14.0843872,61.6210755 C14.1178387,61.7004787 14.0526963,61.5418484 14.0843872,61.6210755 L14.0843872,61.6210755 Z" id="Path" fill="#172B4D"></path>
                <path d="M6.42932054,65.5493727 L5.68923352,66.2895328 C5.14603339,66.8326012 5.14603339,67.7131172 5.68904813,68.2561856 C5.9606482,68.527627 6.31641648,68.6635332 6.67237015,68.6635332 C7.02813843,68.6635332 7.38409211,68.5278125 7.65550678,68.256371 L8.3955938,67.5162109 C8.93879393,66.9731426 8.93879393,66.0926265 8.39577919,65.5497436 C7.85276444,65.0068606 6.97214989,65.0063044 6.42932054,65.5493727 Z" id="Path" fill="#172B4D"></path>
                <path d="M6.69072621,53.1697769 C6.2216762,52.7008776 5.46159107,52.7008776 4.99270115,53.1697769 L0.351667441,57.8109029 C-0.11722248,58.2798022 -0.11722248,59.0400625 0.351667441,59.5088017 C0.586192445,59.7431712 0.893556272,59.8605161 1.20076001,59.8605161 C1.50796376,59.8605161 1.81532758,59.7433313 2.04985259,59.5088017 L6.69088629,54.8676756 C7.15961613,54.3989365 7.15961613,53.6386761 6.69072621,53.1697769 Z" id="Path" fill="#172B4D"></path>
                <path d="M9.22768746,52.7662858 C9.94328646,52.5863998 10.4803972,51.9627949 10.5549437,51.2291421 C10.6280792,50.5107738 10.2330065,49.8067493 9.59171876,49.4827193 C8.9109238,49.1384668 8.05775483,49.2821405 7.52958022,49.8340261 C6.9640148,50.4249458 6.88241347,51.3450687 7.32922191,52.0291059 C7.31511217,52.0079428 7.3042947,51.9924232 7.33274935,52.0359251 C7.3623798,52.0794269 7.35226782,52.0636722 7.33815808,52.0427443 C7.75368993,52.6463618 8.51208847,52.9461719 9.22768746,52.7662858 Z" id="Path" fill="#172B4D"></path>
                <path d="M12.937567,50.6501648 L13.6775465,49.9100291 C14.2206185,49.3669786 14.2206185,48.4864915 13.6773611,47.9436264 C13.133733,47.4003905 12.2532111,47.4005759 11.7108808,47.9438118 L10.9709013,48.6839476 C10.4278293,49.226998 10.4278293,50.1074851 10.9710867,50.6503502 C11.2427153,50.9217828 11.5985211,51.057499 11.9543268,51.057499 C12.3101326,51.057499 12.6661237,50.9217828 12.937567,50.6501648 Z" id="Path" fill="#172B4D"></path>
            </g>
        </g>
    </g>
</svg>