<?xml version="1.0" encoding="UTF-8"?>
<svg width="227px" height="37px" viewBox="0 0 227 37" version="1.1" xmlns="http://www.w3.org/2000/svg" xmlns:xlink="http://www.w3.org/1999/xlink">
    <!-- Generator: Sketch 53.2 (72643) - https://sketchapp.com -->
    <title>LOGO - THE STAR</title>
    <desc>Created with Sketch.</desc>
    <g id="DESKTOP" stroke="none" stroke-width="1" fill="none" fill-rule="evenodd">
        <g id="PRESS-PAGE" transform="translate(-193.000000, -1090.000000)" fill-rule="nonzero">
            <g id="LOGO---THE-STAR" transform="translate(193.746988, 1090.500000)">
                <path d="M51.8507766,1.72898824 L51.8507766,11.8262447 L51.0320801,11.8262447 C48.8488895,5.27667296 46.9385978,2.68413413 44.4825083,2.68413413 L43.9367107,2.68413413 L43.9367107,31.3385107 C43.9367107,33.3852519 44.6189578,34.749746 47.6208448,34.749746 L47.6208448,35.431993 L35.0674989,35.431993 L35.0674989,34.749746 C37.9329366,34.6132966 38.751633,33.3852519 38.751633,31.3385107 L38.751633,2.68413413 L38.2058354,2.68413413 C35.749746,2.68413413 33.9759036,5.27667296 31.6562636,11.8262447 L30.8375671,11.8262447 L30.8375671,1.72898824 L51.8507766,1.72898824 Z M53.1334011,34.8452606 C55.8623893,34.7088111 56.408187,33.4807664 56.408187,31.4340253 L56.408187,5.64508637 C56.408187,3.59834519 55.8623893,2.37030048 53.1334011,2.23385107 L53.1334011,1.72898824 L64.5951517,1.72898824 L64.5951517,2.27478589 C62.4119611,2.4112353 61.5932646,3.5028306 61.5932646,5.68602119 L61.5932646,17.4206706 L70.4624764,17.4206706 L70.4624764,5.64508637 C70.4624764,3.46189578 69.6437799,2.37030048 67.4605893,2.23385107 L67.4605893,1.72898824 L78.92234,1.72898824 L78.92234,2.27478589 C76.1933517,2.4112353 75.6475541,3.63928001 75.6475541,5.68602119 L75.6475541,31.4749601 C75.6475541,33.5217013 76.1933517,34.749746 78.92234,34.8861954 L78.92234,35.5684424 L67.4605893,35.5684424 L67.4605893,34.8861954 C69.6437799,34.749746 70.4624764,33.6581507 70.4624764,31.4749601 L70.4624764,18.5122659 L61.5932646,18.5122659 L61.5932646,31.4749601 C61.5932646,33.6581507 62.4119611,34.749746 64.5951517,34.8861954 L64.5951517,35.5684424 L53.1334011,35.5684424 L53.1334011,34.8452606 Z M110.987952,24.065757 L111.806648,24.065757 C115.081434,32.2527217 117.264625,34.98171 120.130062,34.98171 C122.9955,34.98171 124.632893,32.1162723 124.632893,29.1143853 C124.632893,24.065757 121.358107,22.1554652 118.083321,20.2451735 C114.808535,18.3348817 111.3973,16.4245899 111.3973,10.9666134 C111.3973,4.68994048 115.490782,0.732907534 120.266512,0.732907534 C122.123402,0.759743155 123.94734,1.2274196 125.588039,2.09740165 L126.543185,0.323559297 L127.225432,0.323559297 L127.225432,11.3759617 L126.406735,11.3759617 C123.541298,3.46189578 121.767455,1.55160401 119.584265,1.55160401 C117.401074,1.55160401 115.354333,3.18899695 115.354333,7.28247931 C115.354333,11.7853099 118.35622,13.2862534 121.494557,15.0600958 C124.632893,16.8339382 128.317027,19.0171288 128.317027,24.8844535 C128.317027,29.9330817 125.451589,35.8004064 119.447815,35.8004064 C117.165301,35.7052833 114.950318,34.9983738 113.034693,33.7536653 L111.670199,36.0733053 L110.987952,36.0733053 L110.987952,24.065757 Z M150.694731,1.72898824 L150.694731,11.8262447 L149.876034,11.8262447 C147.692844,5.27667296 145.782552,2.68413413 143.326462,2.68413413 L142.780665,2.68413413 L142.780665,31.3385107 C142.780665,33.3852519 143.462912,34.749746 146.464799,34.749746 L146.464799,35.431993 L134.047902,35.431993 L134.047902,34.749746 C136.91334,34.6132966 137.732037,33.3852519 137.732037,31.3385107 L137.732037,2.68413413 L137.186239,2.68413413 C134.73015,2.68413413 132.956307,5.27667296 130.636667,11.8262447 L129.95442,11.8262447 L129.95442,1.72898824 L150.694731,1.72898824 Z M192.5847,27.3405429 C192.311801,22.1554652 190.947307,19.0171288 186.035128,18.6077805 L186.035128,18.4713311 C191.220206,17.3797358 192.994048,14.1049499 192.994048,9.87501814 C192.994048,5.23573813 190.674408,1.68805342 183.851938,1.68805342 L172.253738,1.68805342 L172.253738,2.23385107 C174.982726,2.37030048 175.528524,3.59834519 175.528524,5.64508637 L175.528524,31.2975758 C175.528524,33.344317 174.573378,34.7088111 172.663086,34.7088111 C170.752794,34.7088111 169.797648,33.344317 168.842503,29.6601829 L162.020032,1.27870518 L158.745246,1.27870518 L152.605022,26.6582958 C150.96763,32.9349688 150.012484,33.7536653 147.829293,34.7088111 L147.829293,35.3910582 L156.016258,35.3910582 L156.016258,34.7088111 C153.014371,34.0265641 152.195674,32.9349688 153.833067,26.385397 L154.515314,23.5199594 L162.156481,23.5199594 L163.793874,30.6153288 C164.476121,33.6172159 164.066773,34.5723617 160.928437,34.7088111 L160.928437,35.3910582 L183.851938,35.3910582 L183.851938,34.7088111 C181.668747,34.5723617 180.850051,33.4807664 180.850051,31.2975758 L180.850051,19.0171288 L182.487444,19.0171288 C186.171578,19.0171288 186.853825,19.9722746 187.263173,24.8844535 L187.536072,29.5237335 C187.808971,34.0265641 188.491218,35.8004064 192.857599,35.8004064 C194.068512,35.75947 195.265558,35.5292689 196.405284,35.1181594 L196.405284,34.4768471 C193.539846,34.5723617 192.72115,32.5256206 192.5847,27.3405429 L192.5847,27.3405429 Z M154.515314,22.5648135 L158.062999,7.41892873 L158.199448,7.41892873 L161.747133,22.5648135 L154.515314,22.5648135 Z M182.760343,18.0619829 L180.713601,18.0619829 L180.713601,2.6431993 L182.350994,2.6431993 C186.444477,2.6431993 187.536072,5.50863696 187.536072,10.0114676 C187.536072,14.787197 186.717376,18.1029177 182.760343,18.1029177 L182.760343,18.0619829 Z M80.4232835,34.8452606 C83.1522717,34.7088111 83.6980694,33.4807664 83.6980694,31.4340253 L83.6980694,5.64508637 C83.6980694,3.59834519 83.1522717,2.23385107 80.4232835,2.23385107 L80.4232835,1.72898824 L100.208448,1.72898824 L100.208448,11.8262447 L99.3897518,11.8262447 C97.3430106,6.50471767 96.5243141,2.68413413 91.6121353,2.68413413 L88.6921179,2.68413413 L88.6921179,17.6935695 L89.6472638,17.6935695 C92.1033532,17.6935695 93.6042967,16.4655247 94.695892,11.1439977 L95.5145885,11.1439977 L95.5145885,25.0618377 L94.695892,25.0618377 C93.6042967,19.7403106 92.1033532,18.5122659 89.6472638,18.5122659 L88.6921179,18.5122659 L88.6921179,34.4768471 L91.6940049,34.4768471 C96.6061838,34.4768471 98.3800261,31.0656118 100.290318,23.9702424 L101.109014,23.9702424 L100.972565,35.431993 L80.3687037,35.431993 L80.3687037,34.8861954 L80.4232835,34.8452606 Z" id="Shape" fill="#000000"></path>
                <path d="M23.7967775,1.55160401 L0.191029177,1.55160401 L7.83219625,18.6077805 L0.191029177,35.3910582 L23.7967775,35.3910582 L23.7967775,1.55160401 Z M202.272609,35.3910582 L225.878357,35.3910582 L218.23719,18.6077805 L225.878357,1.55160401 L202.272609,1.55160401 L202.272609,35.3910582 Z" id="Shape" fill="#0072BC"></path>
            </g>
        </g>
    </g>
</svg>