<?xml version="1.0" encoding="UTF-8"?>
<svg width="89px" height="62px" viewBox="0 0 89 62" version="1.1" xmlns="http://www.w3.org/2000/svg" xmlns:xlink="http://www.w3.org/1999/xlink">
    <!-- Generator: Sketch 53.2 (72643) - https://sketchapp.com -->
    <title>Icon Transparency</title>
    <desc>Created with Sketch.</desc>
    <g id="DESKTOP" stroke="none" stroke-width="1" fill="none" fill-rule="evenodd">
        <g id="JOBS" transform="translate(-152.000000, -1052.000000)" fill-rule="nonzero">
            <g id="Icon-Transparency" transform="translate(152.348761, 1052.363649)">
                <path d="M44.0297416,27.7656969 C38.0412753,27.7656969 33.1692659,32.6377063 33.1692659,38.6261726 C33.1692659,44.6146388 38.0412753,49.4866482 44.0297416,49.4866482 C50.0182078,49.4866482 54.8902172,44.6146388 54.8902172,38.6261726 C54.8902172,32.6377063 50.0182078,27.7656969 44.0297416,27.7656969 Z" id="Shape" stroke="#172B4D" stroke-width="3"></path>
                <path d="M44.0297416,33.2226036 C41.0502136,33.2226036 38.6261726,35.6466446 38.6261726,38.6261726 C38.6261726,41.6057005 41.0502136,44.0297416 44.0297416,44.0297416 C47.0092695,44.0297416 49.4333105,41.6057005 49.4333105,38.6261726 C49.4333105,35.6466446 47.0092695,33.2226036 44.0297416,33.2226036 Z" id="Shape" fill="#E80D70"></path>
                <path d="M44.1291467,0 C43.1892511,0 42.4273622,0.806392612 42.4273622,1.80118966 L42.4273622,12.6083276 C42.4273622,13.6031247 43.1892511,14.4095173 44.1291467,14.4095173 C45.0690423,14.4095173 45.8309312,13.6031247 45.8309312,12.6083276 L45.8309312,1.80118966 C45.8309312,0.806392612 45.0690423,0 44.1291467,0 Z" id="Path" fill="#172B4D"></path>
                <path d="M24.7095878,13.254952 L17.3652251,5.91063342 C16.6891351,5.23454751 15.5928479,5.23454751 14.9165848,5.91063342 C14.2404948,6.58671932 14.2404948,7.68299997 14.9165848,8.35925901 L22.2609475,15.7035776 C22.9370375,16.3796635 24.0334978,16.3798366 24.7095878,15.7035776 C25.3856778,15.0274917 25.3856778,13.931211 24.7095878,13.254952 Z" id="Path" fill="#172B4D"></path>
                <path d="M73.3417087,5.91063342 C72.6656187,5.23454751 71.5693315,5.23454751 70.8930684,5.91063342 L63.5487057,13.254952 C62.8726157,13.9310379 62.8726157,15.0273186 63.5487057,15.7035776 C64.2246225,16.3796635 65.3210829,16.3798366 65.997346,15.7035776 L73.3417087,8.35925901 C74.0177986,7.68317311 74.0177986,6.58689245 73.3417087,5.91063342 Z" id="Path" fill="#172B4D"></path>
                <path d="M87.826498,39.0217349 C76.8760877,26.5659888 60.6165601,16.210707 44.1291467,16.210707 C27.6394924,16.210707 11.3801372,26.5685867 0.431795501,39.0217349 C-0.198424093,39.7387469 -0.130851314,40.8331428 0.582627597,41.4663303 C1.29627889,42.0995177 2.38571757,42.0316267 3.01576479,41.3147879 C3.38310559,40.8968772 3.75941012,40.4805253 4.14054128,40.0667713 C12.6586762,52.9979275 28.1000905,61.2404485 44.1291467,61.2404485 C60.1582029,61.2404485 75.5996173,52.9979275 84.1177522,40.0667713 C84.4988833,40.4806985 84.8751879,40.8970504 85.2425287,41.3147879 C85.8706797,42.0293752 86.959946,42.1014228 87.6756659,41.4663303 C88.3891448,40.8331428 88.4567175,39.7385737 87.826498,39.0217349 Z M44.1291467,57.7766222 C28.9743996,57.7766222 14.3986753,49.8654162 6.60401727,37.5167024 C12.7455555,31.4704204 26.9361839,19.6745332 44.1291467,19.6745332 C61.3222819,19.6745332 75.512738,31.4704204 81.6542762,37.5165292 C73.8596182,49.8654162 59.2838939,57.7766222 44.1291467,57.7766222 Z" id="Shape" fill="#172B4D"></path>
            </g>
        </g>
    </g>
</svg>