<?xml version="1.0" encoding="UTF-8"?>
<svg width="120px" height="27px" viewBox="0 0 120 27" version="1.1" xmlns="http://www.w3.org/2000/svg" xmlns:xlink="http://www.w3.org/1999/xlink">
    <title>Logo-Color</title>
    <g id="STATIC" stroke="none" stroke-width="1" fill="none" fill-rule="evenodd">
        <g id="Artboard" transform="translate(-56.000000, -119.000000)" fill-rule="nonzero">
            <g id="Logo-Color" transform="translate(56.000000, 119.000000)">
                <path d="M88.0625206,0 C87.5300619,0.002322528 87.098961,0.460198642 87.0967742,1.02572746 L87.0967742,19.6075009 C87.1295655,20.1495786 87.5530848,20.5714286 88.0645161,20.5714286 C88.5759474,20.5714286 88.9994668,20.1495786 89.0322581,19.6075009 L89.0322581,1.02572746 C89.0300603,0.458548896 88.5965374,0 88.0625206,0 L88.0625206,0 Z" id="Shape" fill="#272930"></path>
                <path d="M66.4081993,7.07153188 C62.4923061,7.09565097 59.3359294,10.275596 59.354924,14.1775122 C59.3742642,18.0794284 62.5617305,21.228433 66.4776708,21.2142379 C70.3936111,21.1998496 73.5578416,18.0276636 73.5483659,14.1257122 C73.5425796,12.2461247 72.7865277,10.4460531 71.4469878,9.12267673 C70.1074479,7.79930032 68.2945125,7.06138353 66.4081993,7.07153188 L66.4081993,7.07153188 Z M66.4473113,19.1444649 C64.4172023,19.1760627 62.5689733,17.9827858 61.7683927,16.1236022 C60.9678118,14.2644186 61.3734351,12.1075421 62.7952559,10.6633205 C64.2170766,9.21909899 66.3735014,8.77356254 68.2543938,9.53541422 C70.1352866,10.2972659 71.3681334,12.11562 71.3756243,14.138703 C71.3923833,16.8731985 69.1914398,19.108818 66.4473113,19.1444649 L66.4473113,19.1444649 Z" id="Shape" fill="#272930"></path>
                <path d="M99.3114251,7.07153188 C95.3955319,7.09565097 92.2391552,10.275596 92.2581498,14.1775122 C92.27749,18.0794284 95.4649563,21.228433 99.3808966,21.2142379 C103.296837,21.1998496 106.461067,18.0276636 106.451592,14.1257122 C106.445805,12.2461247 105.689754,10.4460531 104.350214,9.12267673 C103.010674,7.79930032 101.197738,7.06138353 99.3114251,7.07153188 L99.3114251,7.07153188 Z M99.3505371,19.1444649 C97.3204281,19.1760627 95.4721991,17.9827858 94.6716185,16.1236022 C93.8710376,14.2644186 94.276661,12.1075421 95.6984817,10.6633205 C97.1203024,9.21909899 99.2767273,8.77356254 101.15762,9.53541422 C103.038512,10.2972659 104.271359,12.11562 104.2788,14.138703 C104.293235,16.8722398 102.093658,19.1064711 99.3505371,19.1444649 L99.3505371,19.1444649 Z" id="Shape" fill="#272930"></path>
                <path d="M50.9752936,7.07150828 C49.0942991,7.06269854 47.2871852,7.78450685 45.9538613,9.07736273 C44.6205373,10.3702186 43.8709677,12.1275172 43.8709677,13.9603727 L43.8709677,13.9603727 L43.8709677,13.9603727 L43.8709677,25.9460372 C43.8709677,26.5281248 44.3552423,27 44.9526252,27 C45.5500081,27 46.0342826,26.5281248 46.0342826,25.9460372 L46.0342826,18.9266452 C47.3772879,20.1742436 49.167462,20.8610864 51.0228863,20.8406416 C53.5471057,20.8323577 55.875045,19.5125276 57.129792,17.3783186 C58.3845391,15.2441096 58.3754677,12.6197588 57.1059957,10.4938338 C55.8365233,8.36790878 53.4995127,7.0633881 50.9752936,7.07150828 L50.9752936,7.07150828 Z M51.0142331,18.8254648 C48.9934335,18.8545127 47.1546628,17.6916494 46.3589791,15.8814198 C45.5632957,14.0711902 45.968222,11.9719686 47.3841396,10.566777 C48.8000575,9.16158536 50.9466548,8.72861196 52.8187247,9.47060927 C54.6907948,10.2126066 55.9177201,11.9826801 55.9250998,13.951941 C55.9394484,16.6148872 53.7469592,18.7907677 51.0142331,18.8254648 L51.0142331,18.8254648 Z" id="Shape" fill="#272930"></path>
                <path d="M119.652981,17.8280436 C119.266642,17.4450907 118.660441,17.4450907 118.274103,17.8280436 C117.414897,18.6499189 116.291634,19.1059886 115.12594,19.1062681 C112.596767,18.9588485 110.616027,16.7803734 110.608317,14.1376569 C110.600608,11.4949404 112.568601,9.30392735 115.096868,9.14044948 C116.270579,9.13582342 117.403653,9.58857687 118.274103,10.4100081 C118.660132,10.7979424 119.271104,10.7979424 119.657134,10.4100081 L119.706973,10.3623455 C119.900066,10.1614726 120.005446,9.8865736 119.998376,9.60218537 C119.991306,9.31779714 119.872408,9.04896696 119.669594,8.85880679 C116.949173,6.33474418 112.803417,6.50352497 110.279805,9.24108094 C107.756194,11.9786369 107.756194,16.3070773 110.279805,19.0446333 C112.803417,21.7821893 116.949173,21.9509701 119.669594,19.4269075 C119.872282,19.2396794 119.991719,18.9733305 119.999586,18.6910157 C120.007452,18.4087008 119.903047,18.1355633 119.711126,17.9363677 L119.652981,17.8280436 Z" id="Shape" fill="#272930"></path>
                <path d="M84.3137584,17.8102509 C84.1921899,17.8096887 84.0722161,17.8382949 83.9636495,17.8937299 L83.9636495,17.8937299 C83.4039576,18.1582286 82.829006,18.388215 82.241937,18.5824319 C80.2154237,19.1083498 78.8726523,18.056514 78.8520579,15.9486685 C78.8520579,14.279088 78.8520579,10.0091356 78.8520579,9.49991354 L83.3128585,9.49991354 C83.7951208,9.49991354 84.1860716,9.10374027 84.1860716,8.61503583 C84.1860716,8.12633136 83.7951208,7.73015809 83.3128585,7.73015809 L78.8397009,7.73015809 L78.8397009,1.00174835 C78.8397009,0.448498013 78.3971153,0 77.851158,0 C77.3052005,0 76.8626149,0.448498013 76.8626149,1.00174835 L76.8626149,7.74685393 L75.0626426,7.74685393 C74.582655,7.74685393 74.1935484,8.14115841 74.1935484,8.62755766 C74.1935484,9.11395692 74.582655,9.50826143 75.0626426,9.50826143 L76.8790904,9.50826143 C76.8790904,9.76287248 76.8502579,14.1997829 76.8996852,16.2199754 C76.9408743,17.889556 77.3816001,19.4088743 79.0291716,20.1142721 C81.0268528,20.9490624 82.9297982,20.6067984 84.746246,19.3629608 C84.767237,19.3534757 84.7866811,19.3408088 84.8039111,19.3253953 L84.8368625,19.3253953 L84.8368625,19.3253953 C85.1207791,19.1060762 85.2329798,18.7263994 85.1147519,18.3850439 C84.9965239,18.0436885 84.6747776,17.8183508 84.3178776,17.8269467 L84.3137584,17.8102509 Z" id="Shape" fill="#272930"></path>
                <g id="Group-2" transform="translate(0.000000, 1.928571)" fill="#E80D70">
                    <path d="M2.01652171,10.1332216 L2.02760193,10.1332216 C2.02760193,15.820394 6.5481339,20.4307582 12.1244927,20.4307582 C17.7008514,20.4307582 22.2213834,15.820394 22.2213834,10.1332216 L22.222293,10.1332216 C22.222293,9.56827486 22.6737067,9.1102951 23.2305538,9.1102951 C23.7874009,9.1102951 24.2388147,9.56827486 24.2388147,10.1332216 L24.239368,10.1332216 C24.239368,16.9570436 18.8153535,22.4888443 12.1244927,22.4888443 C5.48205317,22.4888443 0.088190272,17.0368205 0.0104680064,10.2811678 C0.0035704604,10.232863 3.84195151e-13,10.1834653 3.84195151e-13,10.1332216 C3.84195151e-13,9.56827486 0.451413759,9.1102951 1.00826085,9.1102951 C1.56510795,9.1102951 2.01652171,9.56827486 2.01652171,10.1332216 Z" id="Path"></path>
                    <path d="M13.1910421,12.3556227 C13.1910421,12.9205694 12.7396283,13.3785492 12.1827812,13.3785492 C11.6259341,13.3785492 11.1745204,12.9205694 11.1745204,12.3556227 C11.1745204,12.305379 11.1780908,12.2559812 11.1849884,12.2076765 C11.2627106,5.45202378 16.6565735,-8.47806675e-14 23.299013,-8.47806675e-14 C29.9898739,-8.47806675e-14 35.4138883,5.5318007 35.4138883,12.3556227 L35.4133351,12.3556227 C35.4133351,12.9205694 34.9619211,13.3785492 34.4050741,13.3785492 C33.8482271,13.3785492 33.3968134,12.9205694 33.3968134,12.3556227 L33.3959038,12.3556227 C33.3959038,6.66845025 28.8753718,2.05808606 23.299013,2.05808606 C17.7226543,2.05808606 13.2021223,6.66845025 13.2021223,12.3556227 L13.1910421,12.3556227 Z" id="Path"></path>
                </g>
            </g>
        </g>
    </g>
</svg>